<svg width="461" height="200" xmlns="http://www.w3.org/2000/svg">
  <path class="sally_svg" d="M14.3 116.6c4.6 1.6 9.5666667 1.6 14.9 0 5.6-1.6 9.6-2.466667 12-2.6 30.1333333-1.6 59.266667-12.733333 87.4-33.4 2.266667-1.4666667 4.333333-3.3333333 6.2-5.6 2.933333-3.3333333 3.133333-6.4666667.6-9.4-2.666667-3.0666667-5.8-3.4-9.4-1-.8.5333333-1.9 1.3666667-3.3 2.5s-2.233333 1.7666667-2.5 1.9c-18.133333 13.7333333-37.7333333 23.1333333-58.8 28.2-5.3333333 1.3333333-9.8 1.5333333-13.4.6 1.6-5.6 2.4666667-8.6 2.6-9 3.4666667-12.8 5.4666667-20.2 6-22.2.5333333-2.1333333.3666667-4.0333333-.5-5.7-.8666667-1.6666667-2.3-2.7666667-4.3-3.3-1.6-.4-3.2-.2-4.8.6-1.6.8-2.8 2.1333333-3.6 4-.4.6666667-1.4666667 3.9333333-3.2 9.8-.4 1.0666667-.8333333 2.4666667-1.3 4.2s-.8666667 3.2-1.2 4.4c-.3333333 1.2-.7666667 2.5666667-1.3 4.1-.5333333 1.5333333-1.0666667 2.9666667-1.6 4.3-2.2666667 5.7333333-4.5 9-6.7 9.8-2.2.8-6.2333333-.1333333-12.1-2.8-3.2-1.3333333-5.8-2.0666667-7.8-2.2-2.53333333-.2666667-4.53333333.5-6 2.3-1.46666667 1.8-1.93333333 3.966667-1.4 6.5.26666667 1.6.93333333 3.2 2 4.8 3.06666667 4.533333 6.9 7.6 11.5 9.2zM141.6 102c5.733333 8.533333 14.333333 11.533333 25.8 9 4.533333-.933333 9.133333-2.4 13.8-4.4 11.066667-4.666667 23.8-13.0666667 38.2-25.2 1.066667-.9333333 2-1.9333333 2.8-3 2.4-3.0666667 2.733333-5.9333333 1-8.6-.933333-1.4666667-2.3-2.3666667-4.1-2.7-1.8-.3333333-3.566667-.0333333-5.3.9-.933333.5333333-3.133333 2.2-6.6 5-12.933333 10.2666667-23.4 17.0666667-31.4 20.4-4.8 2.1333333-9.066667 3.5333333-12.8 4.2-3.2.5333333-5.5.1-6.9-1.3-1.4-1.4-1.833333-3.7-1.3-6.9.533333-2.4 1.666667-6.4 3.4-12 1.2-3.6.2-6.6666667-3-9.2-3.066667-2.4-7.533333-4.0666667-13.4-5-7.6-1.2-16.066667 1.1-25.4 6.9-9.333333 5.8-15.4 11.5666667-18.2 17.3-.8 1.6-1.3333333 2.8666667-1.6 3.8-1.6 5.0666667-.6 9.6 3 13.6 3.066667 3.466667 7.066667 5.2 12 5.2 6.133333 0 12.333333-1.933333 18.6-5.8.4-.133333 3.066667-1.8 8-5 1.333333.8 2 1.2 2 1.2.666667.666667 1.133333 1.2 1.4 1.6zm-21-8.6c-3.333333 1.8666667-6.066667 1.9333333-8.2.2 1.2-3.7333333 4.666667-7.2 10.4-10.4.4-.2666667 1.066667-.7 2-1.3.933333-.6 1.633333-1.0333333 2.1-1.3.466667-.2666667 1.233333-.6 2.3-1 1.066667-.4 1.933333-.5333333 2.6-.4.666667.1333333 1.666667.2666667 3 .4-3.333333 5.6-8.066667 10.2-14.2 13.8zm80 17.8c4.8 5.466667 11.4 7.2 19.8 5.2 12.533333-2.8 21.133333-5.4 25.8-7.8 5.2-2.666667 19.333333-10.0666667 42.4-22.2 1.2-.6666667 2.333333-1.5333333 3.4-2.6 2.133333-2 2.866667-4.1333333 2.2-6.4-.533333-1.4666667-1.5-2.7-2.9-3.7s-2.833333-1.3666667-4.3-1.1c-2.533333.4-5.133333 1.3333333-7.8 2.8-2.133333 1.0666667-4.466667 2.3333333-7 3.8-2.533333 1.4666667-5.166667 2.9666667-7.9 4.5-2.733333 1.5333333-5.033333 2.8333333-6.9 3.9-11.466667 6.2666667-21.333333 10.5333333-29.6 12.8-3.6.933333-7.666667 1.666667-12.2 2.2-1.333333.266667-2.4-.166667-3.2-1.3-.8-1.133333-.933333-2.3-.4-3.5.933333-2.4 2.2-4.4 3.8-6 .533333-.5333333 1.533333-1.1333333 3-1.8s2.266667-1 2.4-1c22.666667-12.5333333 40.733333-25.9333333 54.2-40.2 7.066667-7.4666667 11.866667-14.2 14.4-20.2.266667-.4 1.4-3.9333333 3.4-10.6 0-6.8-1.7-11.66666667-5.1-14.6-3.4-2.93333333-7.9-3.6-13.5-2-2.533333.8-5 2.06666667-7.4 3.8-4.533333 3.2-8 6.0666667-10.4 8.6-15.066667 15.6-26 27.2-32.8 34.8-9.6 10.9333333-18 24.8-25.2 41.6-3.6 8.5333333-3 15.533333 1.8 21zm31.6-47.6l.372336-.6512472C234.997128 58.7099017 236.273016 56.5269841 236.4 56.4c1.866667-2 4.233333-4.6 7.1-7.8 2.866667-3.2 5.366667-5.9666667 7.5-8.3 2.133333-2.3333333 4.5-4.8666667 7.1-7.6 2.6-2.7333333 5.233333-5.3333333 7.9-7.8 2.666667-2.4666667 5.333333-4.7666667 8-6.9 0-.1333333 1.066667-.4 3.2-.8.266667.5333333.333333 1.2.2 2-.133333.8-.2 1.4-.2 1.8 0 .4-.166667.9333333-.5 1.6-.333333.6666667-.566667 1.1666667-.7 1.5-.133333.3333333-.4.8-.8 1.4-.4.6-.7 1.0666667-.9 1.4-.2.3333333-.5.8-.9 1.4-.4.6-.733333 1.0333333-1 1.3-4.133333 6.1333333-10.233333 12.6333333-18.3 19.5s-15.366667 11.7-21.9 14.5zm41.2 47.6c4.8 5.466667 11.4 7.2 19.8 5.2 12.533333-2.8 21.133333-5.4 25.8-7.8 5.2-2.666667 19.333333-10.0666667 42.4-22.2 1.2-.6666667 2.333333-1.5333333 3.4-2.6 2.133333-2 2.866667-4.1333333 2.2-6.4-.533333-1.4666667-1.5-2.7-2.9-3.7s-2.833333-1.3666667-4.3-1.1c-2.533333.4-5.133333 1.3333333-7.8 2.8-2.133333 1.0666667-4.466667 2.3333333-7 3.8-2.533333 1.4666667-5.166667 2.9666667-7.9 4.5-2.733333 1.5333333-5.033333 2.8333333-6.9 3.9-11.466667 6.2666667-21.333333 10.5333333-29.6 12.8-3.6.933333-7.666667 1.666667-12.2 2.2-1.333333.266667-2.4-.166667-3.2-1.3-.8-1.133333-.933333-2.3-.4-3.5.933333-2.4 2.2-4.4 3.8-6 .533333-.5333333 1.533333-1.1333333 3-1.8s2.266667-1 2.4-1c22.666667-12.5333333 40.733333-25.9333333 54.2-40.2 7.066667-7.4666667 11.866667-14.2 14.4-20.2.266667-.4 1.4-3.9333333 3.4-10.6 0-6.8-1.7-11.66666667-5.1-14.6-3.4-2.93333333-7.9-3.6-13.5-2-2.533333.8-5 2.06666667-7.4 3.8-4.533333 3.2-8 6.0666667-10.4 8.6-15.066667 15.6-26 27.2-32.8 34.8-9.6 10.9333333-18 24.8-25.2 41.6-3.6 8.5333333-3 15.533333 1.8 21zM305 63.6l.372336-.6512472C307.797128 58.7099017 309.073016 56.5269841 309.2 56.4c1.866667-2 4.233333-4.6 7.1-7.8 2.866667-3.2 5.366667-5.9666667 7.5-8.3 2.133333-2.3333333 4.5-4.8666667 7.1-7.6 2.6-2.7333333 5.233333-5.3333333 7.9-7.8 2.666667-2.4666667 5.333333-4.7666667 8-6.9 0-.1333333 1.066667-.4 3.2-.8.266667.5333333.333333 1.2.2 2-.133333.8-.2 1.4-.2 1.8 0 .4-.166667.9333333-.5 1.6-.333333.6666667-.566667 1.1666667-.7 1.5-.133333.3333333-.4.8-.8 1.4-.4.6-.7 1.0666667-.9 1.4-.075.125-.164062.26875-.267188.43125l-.224999.35c-.121875.1875-.257813.39375-.407813.61875-.4.6-.733333 1.0333333-1 1.3-4.133333 6.1333333-10.233333 12.6333333-18.3 19.5S311.533333 60.8 305 63.6zm-5 132.3c3.733333 3.266667 8.666667 4.3 14.8 3.1 5.6-1.2 11.266667-3.733333 17-7.6 8.133333-5.466667 15.866667-12.4 23.2-20.8.04539-.056738.105991-.130617.181802-.221639l.125124-.149389c.932971-1.108676 3.463996-4.018334 7.593074-8.728972 4.733333-5.4 7.8-8.933333 9.2-10.6 1.4-1.666667 3.8-4.566667 7.2-8.7 3.4-4.133333 6.266667-7.833333 8.6-11.1 2.333333-3.266667 4.566667-6.633333 6.7-10.1 2-3.066667 4.6-5.2 7.8-6.4 10-4 18.733333-7.1 26.2-9.3 7.466667-2.2 15.066667-3.5 22.8-3.9 2-.133333 3.4-.333333 4.2-.6 2.533333-.666667 4.066667-2.2 4.6-4.6.533333-2.4-.2-4.4-2.2-6-2.133333-1.6-4.333333-2.4666667-6.6-2.6-4.533333 0-9 .4666667-13.4 1.4-2.533333.5333333-6.066667 1.3666667-10.6 2.5s-7.733333 1.9-9.6 2.3c-.125.0625-.645508.0957031-1.561523.0996094h-.3875C414.829492 93.8957031 413.4125 93.8625 411.6 93.8c.133333-.9333333.366667-1.8333333.7-2.7.333333-.8666667.733333-1.7666667 1.2-2.7.466667-.9333333.866667-1.6666667 1.2-2.2.333333-.5333333.8-1.2666667 1.4-2.2.6-.9333333 1.033333-1.6 1.3-2 .4-.6666667 1.233333-1.8666667 2.5-3.6 1.266667-1.7333333 2.166667-3.1333333 2.7-4.2 1.866667-3.2 2-6.2.4-9s-4.2-4.2-7.8-4.2c-3.466667.1333333-6.733333 1.0666667-9.8 2.8-2.666667 1.4666667-7.266667 4.6-13.8 9.4-7.066667 5.3333333-14.266667 8.6-21.6 9.8-.133333.1333333-1.8 0-5-.4.133333-2 1.2-4.0666667 3.2-6.2 2-2.1333333 3.066667-3.3333333 3.2-3.6 1.2-2 1.366667-4 .5-6-.866667-2-2.433333-3.2-4.7-3.6-2.4-.4-4.333333-.1333333-5.8.8-7.2 4.8-11.8 10.3333333-13.8 16.6-1.2 3.8666667-.833333 7.3666667 1.1 10.5 1.933333 3.1333333 4.9 5.1 8.9 5.9.666667.1333333 2.4.2666667 5.2.4 7.333333.2666667 15.4-1.3333333 24.2-4.8.266667 0 2.133333-.4666667 5.6-1.4.4 1.0666667.6 1.6.6 1.6 0 .9333333-.133333 1.6-.4 2-3.066667 7.066667-7.933333 12.133333-14.6 15.2-16.533333 7.733333-33.533333 17.8-51 30.2-9.333333 6.666667-16.866667 13.333333-22.6 20-5.866667 6.933333-9.066667 14.133333-9.6 21.6-.4 6.133333 1.266667 10.833333 5 14.1zm20.6-14.5c-3.733333 2.666667-7.2 3.4-10.4 2.2v-1.7c0-.866667.033333-1.6.1-2.2.066667-.6.233333-1.166667.5-1.7 1.2-2.8 2.8-5.466667 4.8-8 4.266667-5.6 11.533333-12.1 21.8-19.5s19.533333-12.7 27.8-15.9c-1.866667 3.333333-2.866667 5.066667-3 5.2-1.066667 1.2-3.433333 4-7.1 8.4-3.666667 4.4-6.766667 8-9.3 10.8-2.533333 2.8-5.066667 5.533333-7.6 8.2-2.933333 2.933333-8.8 7.666667-17.6 14.2z" fill="#FFF" fill-rule="nonzero"/>
</svg>
