<?xml version="1.0" encoding="UTF-8"?>
<svg width="82px" height="61px" viewBox="0 0 82 61" version="1.1" xmlns="http://www.w3.org/2000/svg" xmlns:xlink="http://www.w3.org/1999/xlink">
    <!-- Generator: Sketch 48.2 (47327) - http://www.bohemiancoding.com/sketch -->
    <title>Untitled</title>
    <desc>Created with Sketch.</desc>
    <defs></defs>
    <g id="Page-1" stroke="none" stroke-width="1" fill="none" fill-rule="evenodd">
        <g fill="#FEFEFE">
            <path d="M30.1318,52.0347 C30.1168,51.9837 30.1128,51.9307 30.0848,51.8827 L25.8318,43.9407 C25.8938,43.9097 25.9568,43.8787 26.0068,43.8277 L32.4288,37.4727 L44.0348,40.5817 L48.7768,48.4877 C48.8158,48.5557 48.8628,48.6087 48.9178,48.6597 L44.5578,54.1517 C43.2888,54.3627 41.9878,54.4767 40.6638,54.4767 C36.8858,54.4767 33.3118,53.5977 30.1318,52.0347 Z M19.9248,42.5307 L24.2568,44.3907 L27.5698,50.5737 C24.4368,48.5267 21.8158,45.7697 19.9248,42.5307 Z M17.5068,24.1757 C17.5418,24.1557 17.5778,24.1477 17.6128,24.1207 L23.7998,19.5197 L30.3278,22.9797 L31.0388,36.5267 C31.0388,36.5467 31.0498,36.5657 31.0498,36.5857 L24.8818,42.6907 C24.8318,42.7417 24.7998,42.8057 24.7648,42.8667 L18.8508,40.3317 C18.8278,40.3197 18.8038,40.3237 18.7808,40.3157 C17.4248,37.3117 16.6638,33.9797 16.6638,30.4757 C16.6638,28.2967 16.9598,26.1837 17.5068,24.1757 Z M23.3118,13.9217 L22.6668,18.3707 L18.3898,21.5507 C19.5388,18.6947 21.2178,16.1087 23.3118,13.9217 Z M62.5068,20.5507 C62.4798,20.5937 62.4488,20.6287 62.4328,20.6797 L60.0188,27.7657 L52.7808,27.7657 L44.5658,17.6247 L46.2568,11.3157 L52.8748,10.2187 C53.0148,10.1947 53.1318,10.1287 53.2378,10.0427 C57.2768,12.5387 60.5188,16.1987 62.5068,20.5507 Z M32.6048,35.8627 L31.9528,23.4217 L43.5858,18.9527 L51.4288,28.6407 L44.6398,39.0897 L32.6048,35.8627 Z M45.7688,9.7727 L42.3428,6.5387 C45.4758,6.7577 48.4488,7.5737 51.1358,8.8867 L45.7688,9.7727 Z M25.1828,12.1557 C29.2258,8.7297 34.4138,6.6247 40.0848,6.4877 C40.1238,6.6017 40.1868,6.7027 40.2768,6.7887 L44.6948,10.9607 L42.9488,17.4837 L31.5578,21.8587 C31.5188,21.8237 31.4838,21.7807 31.4368,21.7577 L24.3388,17.9957 L25.1828,12.1557 Z M50.2458,49.5587 L56.3978,48.5737 C53.7258,50.8977 50.5388,52.6447 47.0308,53.6087 L50.2458,49.5587 Z M58.3158,46.7147 C58.2108,46.6867 58.1008,46.6807 57.9878,46.6987 L50.2458,47.9367 C50.2298,47.8437 50.1988,47.7497 50.1478,47.6637 L45.7458,40.3277 L52.8628,29.3667 L59.6048,29.3667 C59.6248,29.4527 59.6438,29.5387 59.6908,29.6167 L63.8788,36.5587 C62.8708,40.4017 60.9288,43.8747 58.3158,46.7147 Z M64.3628,34.2617 L61.2538,29.1087 L63.3978,22.8047 C64.2148,25.2147 64.6638,27.7927 64.6638,30.4757 C64.6638,31.7617 64.5578,33.0267 64.3628,34.2617 Z M40.6638,4.8747 C26.5458,4.8747 15.0618,16.3587 15.0618,30.4757 C15.0618,44.5897 26.5458,56.0737 40.6638,56.0737 C54.7768,56.0737 66.2608,44.5897 66.2608,30.4757 C66.2608,16.3587 54.7768,4.8747 40.6638,4.8747 Z" id="Fill-1"></path>
            <path d="M9.5669,22.6988 L8.4169,23.4668 C7.5549,24.0408 7.0589,25.0028 7.0879,26.0378 L7.9879,56.4008 C8.0029,56.9498 7.7999,57.4688 7.4189,57.8608 C7.0359,58.2528 6.5239,58.4698 5.9759,58.4698 C5.4289,58.4698 4.9169,58.2528 4.5339,57.8608 C4.1519,57.4688 3.9509,56.9498 3.9649,56.4038 L4.8629,26.0378 C4.8939,25.0028 4.3979,24.0408 3.5359,23.4668 L2.3839,22.6988 C2.0709,22.4898 1.8869,22.1238 1.9059,21.7468 L1.9559,20.7568 L9.9979,20.7568 L10.0459,21.7468 C10.0659,22.1238 9.8819,22.4898 9.5669,22.6988 Z M10.9909,2.4888 C10.9639,1.9628 10.5169,1.5588 9.9919,1.5848 C9.4659,1.6108 9.0619,2.0568 9.0879,2.5838 L9.9019,18.8518 L6.9279,18.8518 L6.9279,2.5348 C6.9279,2.0098 6.5019,1.5828 5.9759,1.5828 C5.4509,1.5828 5.0239,2.0098 5.0239,2.5348 L5.0239,18.8518 L2.0509,18.8518 L2.8639,2.5838 C2.8909,2.0578 2.4859,1.6108 1.9609,1.5848 C1.4349,1.5578 0.9879,1.9628 0.9619,2.4888 L0.0039,21.6528 C-0.0481,22.6968 0.4599,23.7048 1.3279,24.2838 L2.4789,25.0518 C2.7909,25.2598 2.9699,25.6068 2.9599,25.9808 L2.0609,56.3488 C2.0319,57.4148 2.4249,58.4238 3.1689,59.1878 C3.9119,59.9518 4.9089,60.3738 5.9759,60.3738 C7.0429,60.3738 8.0399,59.9518 8.7829,59.1878 C9.5269,58.4238 9.9209,57.4148 9.8909,56.3468 L8.9929,25.9808 C8.9819,25.6068 9.1619,25.2598 9.4729,25.0518 L10.6239,24.2838 C11.4929,23.7048 12.0009,22.6968 11.9489,21.6528 L10.9909,2.4888 Z" id="Fill-3"></path>
            <path d="M79.562,56.8794 C79.562,58.0334 78.623,58.9734 77.468,58.9734 C76.89,58.9734 76.351,58.7414 75.953,58.3224 C75.553,57.9024 75.349,57.3544 75.378,56.7754 L76.27,38.9474 C76.292,38.4774 75.98,38.0554 75.523,37.9404 L73.154,37.3484 C72.595,37.2094 72.236,36.6744 72.318,36.1054 L77.038,3.0614 C77.126,2.4414 77.666,1.9744 78.291,1.9744 L78.296,1.9744 C78.994,1.9744 79.562,2.5424 79.562,3.2404 L79.562,56.8794 Z M78.296,0.0004 L78.291,0.0004 C76.689,0.0004 75.31,1.1964 75.083,2.7824 L70.363,35.8244 C70.138,37.4004 71.131,38.8784 72.675,39.2644 L74.257,39.6584 L73.406,56.6764 C73.35,57.8004 73.747,58.8674 74.521,59.6844 C75.297,60.4984 76.343,60.9474 77.468,60.9474 C79.712,60.9474 81.537,59.1224 81.537,56.8794 L81.537,3.2404 C81.537,1.4534 80.083,0.0004 78.296,0.0004 Z" id="Fill-5"></path>
        </g>
    </g>
</svg>