<svg xmlns="http://www.w3.org/2000/svg" width="288" height="288">
  <path fill="#FAFAFA" d="M0 0h288v288H0z"/>
  <path d="M199.636 82.137l-.176-1.352c1.022-.134 1.933-.657 2.562-1.476s.901-1.833.768-2.855c-.135-1.023-.658-1.934-1.477-2.562-.817-.629-1.83-.902-2.854-.768l-.177-1.352c1.384-.184 2.756.187 3.862 1.038 1.106.851 1.816 2.081 1.997 3.466.181 1.384-.188 2.756-1.038 3.862-.852 1.109-2.083 1.818-3.467 1.999zM70.585 225.93c-.684 0-1.371-.095-2.047-.287-1.915-.544-3.503-1.8-4.472-3.538l1.697-.947c.716 1.285 1.89 2.214 3.306 2.616 1.414.401 2.903.229 4.187-.488 2.652-1.479 3.607-4.84 2.129-7.491l1.697-.947c2 3.589.709 8.136-2.879 10.136-1.125.626-2.365.946-3.618.946zM243.385 180.551c-3.098-2.813-3.329-7.624-.517-10.722 2.813-3.098 7.624-3.328 10.722-.518l-1.33 1.467c-2.29-2.078-5.845-1.909-7.926.382-2.079 2.29-1.907 5.846.382 7.926l-1.331 1.465zM80.762 19.726c-.983 0-1.921-.354-2.663-1.013-.803-.713-1.28-1.695-1.344-2.768-.064-1.071.293-2.104 1.006-2.907.713-.803 1.696-1.28 2.768-1.345l.062 1.047c-.792.047-1.519.4-2.045.994s-.791 1.356-.744 2.148c.047.793.4 1.52.994 2.046.593.526 1.356.79 2.149.743l.062 1.047c-.082.006-.164.008-.245.008zM277.249 155.055l-.829-1.137c.859-.627 1.424-1.551 1.588-2.603s-.092-2.104-.719-2.965c-1.296-1.772-3.794-2.164-5.567-.868l-.829-1.137c2.4-1.752 5.78-1.224 7.532 1.176.849 1.163 1.194 2.588.972 4.011-.222 1.423-.985 2.674-2.148 3.523zM161.769 182.972l-1.146-1.781c2.784-1.791 3.593-5.514 1.802-8.298-1.791-2.785-5.513-3.595-8.297-1.802l-1.146-1.783c3.767-2.42 8.803-1.327 11.226 2.438 2.421 3.768 1.327 8.803-2.439 11.226zM10.62 35.15c-1.377 0-2.725-.685-3.511-1.935l.914-.574c.435.691 1.114 1.172 1.911 1.354.795.182 1.617.041 2.309-.394 1.428-.898 1.859-2.792.96-4.221l.914-.574c1.216 1.933.633 4.493-1.299 5.709-.683.43-1.445.635-2.198.635zM266.858 58.425c-.896-1.122-1.303-2.525-1.144-3.952.158-1.428.863-2.708 1.985-3.604 2.315-1.85 5.705-1.474 7.558.842l-1.096.875c-1.368-1.711-3.873-1.99-5.586-.621-.829.663-1.35 1.608-1.468 2.664-.118 1.055.183 2.092.846 2.92l-1.095.876zM120.116 179.885c-3.608-2.979-4.122-8.337-1.145-11.944 1.442-1.748 3.479-2.83 5.735-3.047 2.259-.214 4.462.46 6.21 1.901l-1.409 1.707c-1.292-1.066-2.92-1.567-4.589-1.405-1.667.16-3.173.96-4.239 2.252-2.201 2.667-1.821 6.628.847 8.829l-1.41 1.707zM237.307 17.83c1.214 0 2.308.672 2.855 1.754.386.762.452 1.629.187 2.439-.267.812-.832 1.471-1.594 1.857-.453.229-.938.346-1.441.346-1.214 0-2.308-.672-2.855-1.754-.796-1.572-.164-3.5 1.409-4.297.451-.229.936-.345 1.439-.345m0-1.426c-.703 0-1.416.16-2.084.499-2.279 1.154-3.19 3.937-2.037 6.214.814 1.608 2.44 2.535 4.128 2.535.702 0 1.415-.16 2.085-.5 2.278-1.152 3.19-3.935 2.037-6.213-.815-1.608-2.442-2.535-4.129-2.535zM54.933 107.621c.09 0 .181.005.273.014.683.072 1.296.406 1.729.939.432.533.63 1.203.558 1.885-.138 1.312-1.235 2.301-2.551 2.301-.09 0-.182-.005-.273-.014-1.409-.148-2.434-1.416-2.286-2.824.137-1.313 1.234-2.301 2.55-2.301m0-1.146c-1.876 0-3.49 1.419-3.69 3.326-.215 2.041 1.266 3.869 3.306 4.084.132.015.264.021.394.021 1.878 0 3.49-1.419 3.691-3.326.215-2.041-1.265-3.869-3.306-4.084-.134-.015-.265-.021-.395-.021zM258.123 88.144c1.188 0 2.248.798 2.579 1.939.413 1.424-.408 2.919-1.832 3.331-.245.072-.498.108-.751.108-1.188 0-2.248-.798-2.58-1.939-.413-1.424.409-2.919 1.833-3.331.245-.072.497-.108.751-.108m-.001-1.2c-.358 0-.724.05-1.085.155-2.062.599-3.248 2.756-2.65 4.817.494 1.7 2.047 2.805 3.732 2.805.358 0 .724-.05 1.086-.155 2.061-.599 3.247-2.756 2.649-4.817-.494-1.699-2.046-2.805-3.732-2.805zM123.142 15.027c.575 0 1.134.123 1.664.363.979.445 1.725 1.244 2.103 2.252.377 1.007.34 2.101-.105 3.078-.652 1.435-2.092 2.361-3.668 2.361-.574 0-1.134-.122-1.663-.363-2.021-.918-2.917-3.311-1.999-5.33.652-1.434 2.092-2.361 3.668-2.361m0-1.795c-2.212 0-4.327 1.268-5.303 3.412-1.331 2.927-.038 6.378 2.89 7.709.782.355 1.6.523 2.406.523 2.212 0 4.328-1.268 5.303-3.412 1.331-2.926.037-6.379-2.889-7.709-.781-.355-1.601-.523-2.407-.523zM200.413 136.832c.169 0 .34.014.509.043 1.605.278 2.687 1.812 2.409 3.418-.246 1.421-1.47 2.453-2.909 2.453-.169 0-.34-.016-.508-.044-1.607-.278-2.688-1.812-2.41-3.417.246-1.422 1.469-2.453 2.909-2.453m-.001-1.319c-2.041 0-3.848 1.468-4.208 3.547-.402 2.327 1.157 4.539 3.484 4.942.247.042.492.062.733.062 2.042 0 3.848-1.467 4.209-3.547.402-2.326-1.158-4.539-3.484-4.941-.246-.043-.492-.063-.734-.063zM52.387 143.14c.785 0 1.527.257 2.147.742.732.574 1.197 1.399 1.31 2.324.112.925-.143 1.837-.717 2.569-.665.849-1.666 1.336-2.747 1.336-.785 0-1.527-.258-2.147-.743-1.513-1.186-1.779-3.381-.594-4.894.666-.848 1.668-1.334 2.748-1.334m0-1.556c-1.496 0-2.977.664-3.971 1.932-1.717 2.191-1.333 5.359.858 7.076.922.724 2.018 1.074 3.106 1.074 1.496 0 2.977-.663 3.971-1.932 1.717-2.19 1.333-5.359-.858-7.076-.923-.722-2.018-1.074-3.106-1.074zM19.679 261.301c.768 0 1.473.35 1.937.959.393.517.561 1.155.473 1.799-.087.643-.42 1.213-.937 1.606-.426.324-.934.496-1.468.496-.767 0-1.473-.35-1.937-.96-.393-.517-.561-1.155-.474-1.799.087-.643.42-1.213.937-1.605.428-.325.935-.496 1.469-.496m0-1.084c-.741 0-1.489.233-2.125.717-1.545 1.174-1.845 3.379-.67 4.924.691.909 1.739 1.388 2.8 1.388.741 0 1.489-.234 2.125-.718 1.544-1.174 1.845-3.379.67-4.924-.691-.91-1.739-1.387-2.8-1.387zM137.24 68.513c1.842 0 3.504 1.164 4.136 2.896.831 2.28-.348 4.812-2.628 5.643-.487.178-.994.268-1.506.268-1.843 0-3.505-1.164-4.137-2.896-.403-1.105-.351-2.301.146-3.367.497-1.064 1.378-1.873 2.483-2.276.486-.178.993-.268 1.506-.268m-.001-1.964c-.724 0-1.459.125-2.179.387-3.303 1.203-5.005 4.856-3.801 8.16.941 2.584 3.382 4.188 5.981 4.188.723 0 1.459-.125 2.178-.387 3.302-1.203 5.004-4.857 3.801-8.16-.941-2.585-3.381-4.188-5.98-4.188zM138.62 252.611c.385 0 .757.088 1.107.26.601.296 1.051.809 1.267 1.443.215.635.171 1.314-.125 1.915-.426.865-1.29 1.402-2.254 1.402-.385 0-.757-.087-1.105-.259-1.241-.612-1.754-2.12-1.143-3.36.425-.864 1.289-1.401 2.253-1.401m0-1.119c-1.338 0-2.626.744-3.257 2.025-.885 1.798-.146 3.973 1.652 4.859.516.254 1.062.374 1.6.374 1.338 0 2.626-.744 3.258-2.026.885-1.797.146-3.973-1.651-4.857-.517-.255-1.064-.375-1.602-.375zM104.682 50.285l4.067 4.496-6.038.556-4.067-4.497 6.038-.555m.607-1.556l-9.757.896 6.572 7.267 9.756-.897-6.571-7.266zM14.543 194.753l4.165 4.408-1.028 5.978-4.164-4.409 1.027-5.977m-.966-3.198l-1.66 9.658 6.729 7.124 1.661-9.659-6.73-7.123zM237.102 256.856l8.074 3.997 1.647 8.856-8.074-3.996-1.647-8.857m-2.995-3.959l2.662 14.313 13.049 6.457-2.663-14.312-13.048-6.458zM55.586 47.202l4.409 1.554 1.403 4.459-4.409-1.554-1.403-4.459m-1.79-1.852l2.267 7.207 7.125 2.51-2.267-7.205-7.125-2.512zM140.671 199.173l.633 5.332-3.885 3.706-.634-5.332 3.886-3.706m1.002-2.784l-6.279 5.989 1.024 8.616 6.278-5.988-1.023-8.617zM85.235 143.593l4.257 2.358.668 4.82-4.257-2.357-.668-4.821m-1.517-2.211l1.079 7.79 6.88 3.811-1.08-7.789-6.879-3.812zM102.926 266.624l-1.991 4.077-4.457.854 1.991-4.077 4.457-.854m1.986-1.519l-7.202 1.38-3.217 6.589 7.201-1.38 3.218-6.589zM150.688 115.416l-5.024 7.547-9.053.508 5.026-7.547 9.051-.508m4.335-2.48l-14.626.821-8.122 12.194 14.629-.82 8.119-12.195zM35.183 12.89l5.935 6.171-1.375 8.451-5.936-6.171 1.376-8.451m-1.405-4.504l-2.223 13.657 9.592 9.973 2.222-13.656-9.591-9.974zM17.911 71.924c-.146 0-.293-.031-.433-.097-.513-.239-.734-.85-.495-1.362.558-1.194 1.535-2.06 2.752-2.438 1.217-.377 2.511-.217 3.644.448.63.37 1.34.46 1.998.256.659-.205 1.192-.683 1.502-1.346.558-1.193 1.536-2.059 2.753-2.437 1.215-.378 2.51-.219 3.643.448.488.287.651.915.364 1.403-.287.489-.916.649-1.403.364-.63-.371-1.339-.463-1.996-.258-.659.205-1.194.684-1.504 1.348-.557 1.191-1.534 2.056-2.75 2.434-1.215.379-2.51.221-3.645-.445-.632-.37-1.34-.461-1.998-.259-.659.205-1.192.684-1.502 1.348-.174.374-.544.593-.93.593zM219.126 115.87c-.009 0-.017 0-.026-.001-.368-.014-.656-.324-.643-.693.019-.476-.147-.911-.469-1.226-.321-.315-.757-.476-1.24-.447-.855.042-1.654-.245-2.248-.827s-.903-1.375-.873-2.232c.019-.477-.148-.912-.468-1.227-.322-.316-.764-.471-1.24-.447-.367-.004-.685-.262-.705-.63-.021-.369.261-.685.63-.706.859-.04 1.658.245 2.252.828.592.582.901 1.374.869 2.231-.018.476.149.912.471 1.228.322.314.759.469 1.237.446.868-.038 1.659.245 2.253.829.593.582.901 1.374.868 2.23-.014.361-.311.644-.668.644zM204.691 243.964c-.332 0-.603-.267-.606-.599-.004-.335.264-.61.599-.614.432-.005.818-.176 1.088-.48.271-.306.396-.712.349-1.143-.083-.774.146-1.511.646-2.075.5-.563 1.203-.881 1.982-.892.433-.005.819-.176 1.09-.481.27-.305.394-.71.348-1.141-.037-.333.204-.632.537-.668.332-.044.632.204.667.537.085.774-.145 1.512-.646 2.076-.499.563-1.203.88-1.98.89-.432.006-.819.178-1.09.483s-.395.71-.348 1.141c.084.774-.146 1.513-.646 2.076-.5.564-1.203.88-1.98.89h-.01zM48.416 192.182c-.21 0-.422-.069-.599-.212-.954-.771-1.518-1.848-1.587-3.032-.069-1.183.364-2.316 1.219-3.191.474-.486.715-1.108.677-1.749-.038-.642-.351-1.23-.88-1.658-.954-.771-1.518-1.848-1.587-3.033-.069-1.183.364-2.316 1.22-3.191.37-.378.974-.383 1.349-.015.377.368.383.972.015 1.349-.476.486-.716 1.106-.679 1.746.038.642.351 1.231.882 1.66.953.77 1.516 1.846 1.585 3.029.07 1.184-.361 2.318-1.216 3.195-.476.487-.717 1.106-.68 1.747s.351 1.23.882 1.659c.41.331.474.932.143 1.342-.19.233-.466.354-.744.354zM58.755 259.748c-1.137 0-2.214-.375-3.094-1.09-1.083-.879-1.724-2.155-1.805-3.594-.046-.798-.395-1.5-.981-1.976-.587-.477-1.346-.674-2.138-.552-1.428.213-2.812-.148-3.896-1.03-1.083-.879-1.723-2.155-1.803-3.593-.034-.619.439-1.149 1.059-1.184.624-.029 1.149.439 1.184 1.059.044.799.391 1.5.977 1.976.588.478 1.35.674 2.143.552 1.425-.213 2.806.149 3.889 1.028 1.084.879 1.727 2.154 1.81 3.593.045.801.392 1.502.978 1.978.587.477 1.346.675 2.141.552.612-.096 1.185.329 1.278.941.093.613-.328 1.186-.941 1.279-.27.041-.537.061-.801.061zM12.091 106.635c-.04 0-.08-.001-.119-.002-.419-.014-.749-.365-.735-.784.013-.42.361-.74.784-.735.551.024 1.036-.174 1.391-.541.356-.367.534-.867.5-1.409-.06-.976.269-1.886.927-2.563.657-.678 1.561-1.025 2.529-1.004.546.014 1.036-.174 1.392-.541.356-.367.534-.868.5-1.411-.026-.419.292-.779.711-.806.421-.03.779.293.806.712.061.975-.268 1.886-.927 2.563-.657.677-1.563 1.03-2.53 1.002-.539-.027-1.035.175-1.39.542-.356.368-.534.869-.501 1.411.062.974-.267 1.884-.925 2.562-.632.649-1.484 1.004-2.413 1.004zM104.37 113.764c-.596 0-1.179-.149-1.708-.443-.882-.49-1.5-1.318-1.739-2.333-.134-.563-.471-1.021-.95-1.286-.478-.265-1.043-.31-1.594-.123-.991.335-2.022.249-2.906-.243-.883-.49-1.5-1.319-1.739-2.334-.103-.438.168-.875.605-.978.44-.1.875.169.977.604.133.564.469 1.021.947 1.286.478.265 1.044.311 1.596.123.987-.334 2.019-.247 2.903.242.884.49 1.502 1.319 1.743 2.334.133.564.469 1.021.946 1.286.479.266 1.046.311 1.597.123.426-.141.887.087 1.03.511.144.425-.085.887-.51 1.03-.398.134-.8.201-1.198.201zM19.299 149.88c-.254 0-.508-.098-.7-.294-.881-.9-1.328-2.065-1.258-3.282.07-1.215.647-2.319 1.624-3.11.542-.439.861-1.045.899-1.703s-.211-1.296-.7-1.795c-.882-.9-1.329-2.066-1.258-3.283.071-1.216.647-2.32 1.625-3.11.421-.34 1.037-.274 1.378.146.34.421.275 1.037-.146 1.378-.542.439-.862 1.043-.9 1.7-.038.659.211 1.298.702 1.799.879.897 1.326 2.062 1.256 3.277s-.646 2.322-1.622 3.114c-.543.44-.863 1.044-.901 1.701-.038.658.211 1.297.702 1.798.378.387.372 1.007-.015 1.386-.191.185-.438.278-.686.278zM162.174 51.915c-.497 0-.999-.09-1.489-.271-.487-.18-.737-.721-.558-1.208.18-.488.721-.738 1.208-.558.629.231 1.284.198 1.846-.093.562-.293.967-.812 1.14-1.464.309-1.167 1.051-2.107 2.088-2.647 1.039-.541 2.232-.609 3.367-.193.63.232 1.285.2 1.847-.091.562-.293.966-.812 1.139-1.463.133-.502.649-.802 1.149-.67.503.133.803.648.67 1.15-.31 1.17-1.052 2.112-2.091 2.652-1.037.537-2.231.606-3.364.188-.63-.23-1.286-.196-1.848.096-.562.293-.966.812-1.138 1.461-.31 1.17-1.052 2.111-2.091 2.651-.588.307-1.227.46-1.875.46zM213.877 162.551c-.135 0-.271-.048-.377-.146l-3.63-3.329c-.227-.208-.241-.56-.034-.786.208-.228.561-.243.787-.034l3.63 3.329c.227.208.241.56.034.786-.11.119-.26.18-.41.18zM95.099 189.101c-.162 0-.324-.067-.44-.198l-3.438-3.891c-.214-.243-.191-.614.051-.828s.613-.191.829.051l3.438 3.891c.214.243.191.614-.051.828-.112.098-.251.147-.389.147zM70.937 80.877c-.318 0-.606-.219-.681-.542-.087-.376.147-.751.524-.838l6.024-1.393c.371-.092.751.146.838.523.087.376-.147.751-.524.838l-6.024 1.393c-.052.013-.105.019-.157.019zM196.02 27.772c-.299 0-.57-.204-.645-.508-.085-.356.135-.715.49-.8l5.705-1.371c.355-.088.715.134.801.489.085.356-.135.715-.49.8l-5.705 1.371c-.053.014-.105.019-.156.019zM271.838 250.226c-.275 0-.525-.188-.592-.467l-1.249-5.234c-.078-.327.124-.655.451-.733.322-.077.654.123.732.45l1.249 5.234c.078.327-.124.655-.451.733-.046.011-.093.017-.14.017zM173.539 256.147c-.226 0-.441-.13-.539-.35l-2.113-4.76c-.133-.298.002-.646.299-.777s.646.002.777.299l2.114 4.76c.132.298-.003.646-.3.777-.078.035-.158.051-.238.051zM171.22 218.971c-.518 0-.951-.403-.981-.927-.032-.543.382-1.009.925-1.041l8.694-.51c.548-.024 1.009.383 1.04.926.032.543-.382 1.009-.925 1.041l-8.694.51c-.02.001-.04.001-.059.001zM114.279 230.829c-.226 0-.434-.147-.501-.375l-1.307-4.436c-.082-.276.077-.567.354-.648.274-.084.567.077.649.354l1.307 4.436c.082.276-.077.567-.354.648-.05.014-.099.021-.148.021zM276.98 199.455c-.034 0-.068-.002-.104-.007l-7.578-.908c-.473-.057-.811-.486-.755-.959.058-.474.492-.815.96-.754l7.578.908c.474.057.812.486.754.959-.051.439-.424.761-.855.761zM239.521 140.367l-1.587-1.578 8.016-8.063 8.063 8.017-1.579 1.588-6.475-6.437M204.816 203.369l-1.439-.822 3.355-5.868-5.867-3.356.824-1.439 7.307 4.179M158.115 281.577l-4.353-6.086 1.198-.857 3.496 4.887 4.886-3.498.857 1.2M232.651 60.072l-7.991-1.509 1.509-7.991 1.575.297-1.213 6.417 6.417 1.212M166.203 18.296l-7.806-6.543 1.29-1.537 6.268 5.254 5.254-6.269 1.537 1.289M172.727 101.169l-.998-5.726-5.726.999-.245-1.404 7.13-1.243 1.243 7.13M273.312 21.684l-6.245-4.952.976-1.23 5.015 3.977 3.976-5.017 1.231.975M205.621 277.577l-3.045-5.71-5.71 3.045-.747-1.4 7.111-3.791 3.791 7.11M240.996 214.917l-7.821-7.754 1.527-1.541 6.28 6.227 6.227-6.282 1.541 1.528"/>
</svg>
