<svg xmlns="http://www.w3.org/2000/svg" width="1920" height="1080"><path d="M673,1308L66,1321L827,1318Z" fill="#a87887" stroke="#a87887" stroke-width="1.51"/><path d="M784,-241L1155,-198L1262,-197Z" fill="#de927a" stroke="#de927a" stroke-width="1.51"/><path d="M1262,-197L1493,-187L1820,-201Z" fill="#be7f7f" stroke="#be7f7f" stroke-width="1.51"/><path d="M784,-241L1262,-197L1820,-201Z" fill="#d18a86" stroke="#d18a86" stroke-width="1.51"/><path d="M1393,1281L1221,1285L1827,1320Z" fill="#738bc2" stroke="#738bc2" stroke-width="1.51"/><path d="M1221,1285L827,1318L1827,1320Z" fill="#8792c7" stroke="#8792c7" stroke-width="1.51"/><path d="M1540,1271L1393,1281L1827,1320Z" fill="#6783bd" stroke="#6783bd" stroke-width="1.51"/><path d="M1984,1117L2076,1158L2079,938Z" fill="#537ab7" stroke="#537ab7" stroke-width="1.51"/><path d="M2012,279L2146,391L2159,224Z" fill="#aa8590" stroke="#aa8590" stroke-width="1.51"/><path d="M2024,667L2144,678L2162,483Z" fill="#9d9ebd" stroke="#9d9ebd" stroke-width="1.51"/><path d="M1979,594L2024,667L2162,483Z" fill="#a2a6bc" stroke="#a2a6bc" stroke-width="1.51"/><path d="M2159,224L2146,391L2162,483Z" fill="#a68897" stroke="#a68897" stroke-width="1.51"/><path d="M2162,137L2159,224L2162,483Z" fill="#a77b8b" stroke="#a77b8b" stroke-width="1.51"/><path d="M1976,88L2162,137L2166,-34Z" fill="#aa5c75" stroke="#aa5c75" stroke-width="1.51"/><path d="M2006,-81L1976,88L2166,-34Z" fill="#a85a71" stroke="#a85a71" stroke-width="1.51"/><path d="M2076,1158L2108,1305L2176,771Z" fill="#5070b2" stroke="#5070b2" stroke-width="1.51"/><path d="M2079,938L2076,1158L2176,771Z" fill="#6583bd" stroke="#6583bd" stroke-width="1.51"/><path d="M1964,774L2079,938L2176,771Z" fill="#7d96c8" stroke="#7d96c8" stroke-width="1.51"/><path d="M2144,678L2024,667L2176,771Z" fill="#909acb" stroke="#909acb" stroke-width="1.51"/><path d="M2024,667L1964,774L2176,771Z" fill="#8da0cd" stroke="#8da0cd" stroke-width="1.51"/><path d="M2162,483L2144,678L2176,771Z" fill="#9795c0" stroke="#9795c0" stroke-width="1.51"/><path d="M2166,-34L2162,137L2176,771Z" fill="#a77b8c" stroke="#a77b8c" stroke-width="1.51"/><path d="M2162,137L2162,483L2176,771Z" fill="#a491a4" stroke="#a491a4" stroke-width="1.51"/><path d="M2012,279L2159,224L2162,137Z" fill="#ab7884" stroke="#ab7884" stroke-width="1.51"/><path d="M1976,88L2012,279L2162,137Z" fill="#ae7883" stroke="#ae7883" stroke-width="1.51"/><path d="M2146,391L1958,430L2162,483Z" fill="#a899a4" stroke="#a899a4" stroke-width="1.51"/><path d="M2060,-151L2006,-81L2166,-34Z" fill="#a14868" stroke="#a14868" stroke-width="1.51"/><path d="M1958,430L1979,594L2162,483Z" fill="#a9a8b1" stroke="#a9a8b1" stroke-width="1.51"/><path d="M1932,1247L1827,1320L2108,1305Z" fill="#405ea9" stroke="#405ea9" stroke-width="1.51"/><path d="M2012,279L1958,430L2146,391Z" fill="#ab999e" stroke="#ab999e" stroke-width="1.51"/><path d="M1958,968L1984,1117L2079,938Z" fill="#5f8ac0" stroke="#5f8ac0" stroke-width="1.51"/><path d="M2076,1158L1932,1247L2108,1305Z" fill="#405da8" stroke="#405da8" stroke-width="1.51"/><path d="M1984,1117L1932,1247L2076,1158Z" fill="#446fb2" stroke="#446fb2" stroke-width="1.51"/><path d="M1964,774L1958,968L2079,938Z" fill="#7399c9" stroke="#7399c9" stroke-width="1.51"/><path d="M1965,-176L2006,-81L2060,-151Z" fill="#9e4e69" stroke="#9e4e69" stroke-width="1.51"/><path d="M1130,1278L827,1318L1221,1285Z" fill="#9d9bbc" stroke="#9d9bbc" stroke-width="1.51"/><path d="M1858,827L1958,968L1964,774Z" fill="#7da8d0" stroke="#7da8d0" stroke-width="1.51"/><path d="M1847,5L1976,88L2006,-81Z" fill="#af6b78" stroke="#af6b78" stroke-width="1.51"/><path d="M1976,88L1803,262L2012,279Z" fill="#b4908e" stroke="#b4908e" stroke-width="1.51"/><path d="M1979,594L1964,774L2024,667Z" fill="#99add0" stroke="#99add0" stroke-width="1.51"/><path d="M1802,108L1803,262L1976,88Z" fill="#ba8e8b" stroke="#ba8e8b" stroke-width="1.51"/><path d="M1958,430L1828,528L1979,594Z" fill="#aeb8ba" stroke="#aeb8ba" stroke-width="1.51"/><path d="M1803,262L1958,430L2012,279Z" fill="#b2a29e" stroke="#b2a29e" stroke-width="1.51"/><path d="M1775,722L1964,774L1979,594Z" fill="#9bb7d8" stroke="#9bb7d8" stroke-width="1.51"/><path d="M1958,968L1818,1026L1984,1117Z" fill="#5d90c3" stroke="#5d90c3" stroke-width="1.51"/><path d="M1965,-176L1847,5L2006,-81Z" fill="#aa5e6f" stroke="#aa5e6f" stroke-width="1.51"/><path d="M1803,262L1774,366L1958,430Z" fill="#b7b0a7" stroke="#b7b0a7" stroke-width="1.51"/><path d="M1820,-201L1847,5L1965,-176Z" fill="#aa6170" stroke="#aa6170" stroke-width="1.51"/><path d="M1828,528L1775,722L1979,594Z" fill="#a9bfcd" stroke="#a9bfcd" stroke-width="1.51"/><path d="M1822,1173L1932,1247L1984,1117Z" fill="#4978b6" stroke="#4978b6" stroke-width="1.51"/><path d="M1818,1026L1822,1173L1984,1117Z" fill="#5889be" stroke="#5889be" stroke-width="1.51"/><path d="M1847,5L1802,108L1976,88Z" fill="#b97d81" stroke="#b97d81" stroke-width="1.51"/><path d="M1775,722L1858,827L1964,774Z" fill="#91b6d7" stroke="#91b6d7" stroke-width="1.51"/><path d="M1858,827L1818,1026L1958,968Z" fill="#72a2cd" stroke="#72a2cd" stroke-width="1.51"/><path d="M1774,366L1828,528L1958,430Z" fill="#b5b9b3" stroke="#b5b9b3" stroke-width="1.51"/><path d="M-82,-239L130,-195L784,-241Z" fill="#d34e37" stroke="#d34e37" stroke-width="1.51"/><path d="M1731,921L1818,1026L1858,827Z" fill="#7caed2" stroke="#7caed2" stroke-width="1.51"/><path d="M1822,1173L1827,1320L1932,1247Z" fill="#4b71b3" stroke="#4b71b3" stroke-width="1.51"/><path d="M1493,-187L1631,-139L1820,-201Z" fill="#b6767a" stroke="#b6767a" stroke-width="1.51"/><path d="M1818,1026L1705,1064L1822,1173Z" fill="#6397c6" stroke="#6397c6" stroke-width="1.51"/><path d="M1822,1173L1713,1232L1827,1320Z" fill="#537ab8" stroke="#537ab8" stroke-width="1.51"/><path d="M1744,516L1775,722L1828,528Z" fill="#b3c9cd" stroke="#b3c9cd" stroke-width="1.51"/><path d="M1774,366L1744,516L1828,528Z" fill="#bac4ba" stroke="#bac4ba" stroke-width="1.51"/><path d="M1820,-201L1631,-139L1847,5Z" fill="#b67076" stroke="#b67076" stroke-width="1.51"/><path d="M1631,-139L1654,11L1847,5Z" fill="#c1807f" stroke="#c1807f" stroke-width="1.51"/><path d="M1775,722L1731,921L1858,827Z" fill="#8fbbda" stroke="#8fbbda" stroke-width="1.51"/><path d="M1705,727L1731,921L1775,722Z" fill="#99c3de" stroke="#99c3de" stroke-width="1.51"/><path d="M1713,1232L1540,1271L1827,1320Z" fill="#5b7dba" stroke="#5b7dba" stroke-width="1.51"/><path d="M1705,101L1802,108L1847,5Z" fill="#c18887" stroke="#c18887" stroke-width="1.51"/><path d="M1654,11L1705,101L1847,5Z" fill="#c48986" stroke="#c48986" stroke-width="1.51"/><path d="M1744,516L1705,727L1775,722Z" fill="#aeccda" stroke="#aeccda" stroke-width="1.51"/><path d="M1802,108L1705,101L1803,262Z" fill="#c29a91" stroke="#c29a91" stroke-width="1.51"/><path d="M1731,921L1705,1064L1818,1026Z" fill="#72a9cf" stroke="#72a9cf" stroke-width="1.51"/><path d="M1705,1064L1713,1232L1822,1173Z" fill="#5d8fc2" stroke="#5d8fc2" stroke-width="1.51"/><path d="M1705,727L1628,777L1731,921Z" fill="#9ac8e0" stroke="#9ac8e0" stroke-width="1.51"/><path d="M1630,308L1774,366L1803,262Z" fill="#c2b8a7" stroke="#c2b8a7" stroke-width="1.51"/><path d="M1705,101L1630,308L1803,262Z" fill="#c6ad9a" stroke="#c6ad9a" stroke-width="1.51"/><path d="M1584,149L1630,308L1705,101Z" fill="#ceac9a" stroke="#ceac9a" stroke-width="1.51"/><path d="M1544,626L1705,727L1744,516Z" fill="#b9d5d9" stroke="#b9d5d9" stroke-width="1.51"/><path d="M1631,337L1744,516L1774,366Z" fill="#c1c6b5" stroke="#c1c6b5" stroke-width="1.51"/><path d="M1630,308L1631,337L1774,366Z" fill="#c7c1ad" stroke="#c7c1ad" stroke-width="1.51"/><path d="M1705,1064L1575,1089L1713,1232Z" fill="#699cc9" stroke="#699cc9" stroke-width="1.51"/><path d="M1631,337L1543,419L1744,516Z" fill="#c8cfbb" stroke="#c8cfbb" stroke-width="1.51"/><path d="M1543,419L1522,502L1744,516Z" fill="#cad8c5" stroke="#cad8c5" stroke-width="1.51"/><path d="M1522,502L1544,626L1744,516Z" fill="#c8ddcf" stroke="#c8ddcf" stroke-width="1.51"/><path d="M1631,-139L1582,-90L1654,11Z" fill="#c7847f" stroke="#c7847f" stroke-width="1.51"/><path d="M1503,962L1575,1089L1705,1064Z" fill="#7eb3d4" stroke="#7eb3d4" stroke-width="1.51"/><path d="M1503,962L1705,1064L1731,921Z" fill="#81b6d6" stroke="#81b6d6" stroke-width="1.51"/><path d="M1526,874L1503,962L1731,921Z" fill="#93c4de" stroke="#93c4de" stroke-width="1.51"/><path d="M1628,777L1526,874L1731,921Z" fill="#98c9e1" stroke="#98c9e1" stroke-width="1.51"/><path d="M1544,626L1628,777L1705,727Z" fill="#b2d5e7" stroke="#b2d5e7" stroke-width="1.51"/><path d="M1575,1089L1540,1271L1713,1232Z" fill="#6894c5" stroke="#6894c5" stroke-width="1.51"/><path d="M1654,11L1584,149L1705,101Z" fill="#cd9a8f" stroke="#cd9a8f" stroke-width="1.51"/><path d="M1584,149L1519,302L1630,308Z" fill="#d3bda5" stroke="#d3bda5" stroke-width="1.51"/><path d="M1582,-90L1584,149L1654,11Z" fill="#ce938a" stroke="#ce938a" stroke-width="1.51"/><path d="M1582,-90L1422,-87L1584,149Z" fill="#d4958a" stroke="#d4958a" stroke-width="1.51"/><path d="M1544,626L1419,771L1628,777Z" fill="#b9ddeb" stroke="#b9ddeb" stroke-width="1.51"/><path d="M1630,308L1519,302L1631,337Z" fill="#cfc6ad" stroke="#cfc6ad" stroke-width="1.51"/><path d="M1519,302L1543,419L1631,337Z" fill="#d1ceb4" stroke="#d1ceb4" stroke-width="1.51"/><path d="M1493,-187L1582,-90L1631,-139Z" fill="#c4807e" stroke="#c4807e" stroke-width="1.51"/><path d="M1422,-87L1348,94L1584,149Z" fill="#dfa593" stroke="#dfa593" stroke-width="1.51"/><path d="M1419,771L1526,874L1628,777Z" fill="#acd6e8" stroke="#acd6e8" stroke-width="1.51"/><path d="M1419,1157L1540,1271L1575,1089Z" fill="#75a1cc" stroke="#75a1cc" stroke-width="1.51"/><path d="M1380,261L1519,302L1584,149Z" fill="#dbc2a6" stroke="#dbc2a6" stroke-width="1.51"/><path d="M1348,94L1380,261L1584,149Z" fill="#e1bba0" stroke="#e1bba0" stroke-width="1.51"/><path d="M1493,-187L1422,-87L1582,-90Z" fill="#cd8882" stroke="#cd8882" stroke-width="1.51"/><path d="M1503,962L1419,1157L1575,1089Z" fill="#84b6d7" stroke="#84b6d7" stroke-width="1.51"/><path d="M1419,1157L1393,1281L1540,1271Z" fill="#7999c9" stroke="#7999c9" stroke-width="1.51"/><path d="M1519,302L1379,446L1543,419Z" fill="#d8dbbd" stroke="#d8dbbd" stroke-width="1.51"/><path d="M1442,503L1522,502L1543,419Z" fill="#d4e1c9" stroke="#d4e1c9" stroke-width="1.51"/><path d="M1442,503L1345,702L1544,626Z" fill="#d2eae1" stroke="#d2eae1" stroke-width="1.51"/><path d="M1345,702L1419,771L1544,626Z" fill="#c8e7f1" stroke="#c8e7f1" stroke-width="1.51"/><path d="M1522,502L1442,503L1544,626Z" fill="#d3e7d3" stroke="#d3e7d3" stroke-width="1.51"/><path d="M1379,446L1442,503L1543,419Z" fill="#dae4c8" stroke="#dae4c8" stroke-width="1.51"/><path d="M1351,941L1419,1157L1503,962Z" fill="#93c4de" stroke="#93c4de" stroke-width="1.51"/><path d="M1380,261L1379,446L1519,302Z" fill="#dfd7b8" stroke="#dfd7b8" stroke-width="1.51"/><path d="M1351,941L1503,962L1526,874Z" fill="#9fcfe4" stroke="#9fcfe4" stroke-width="1.51"/><path d="M1419,771L1351,941L1526,874Z" fill="#add9ea" stroke="#add9ea" stroke-width="1.51"/><path d="M1262,-197L1355,-136L1493,-187Z" fill="#d08b85" stroke="#d08b85" stroke-width="1.51"/><path d="M1309,559L1345,702L1442,503Z" fill="#dceedf" stroke="#dceedf" stroke-width="1.51"/><path d="M1355,-136L1422,-87L1493,-187Z" fill="#d28c84" stroke="#d28c84" stroke-width="1.51"/><path d="M1309,559L1295,651L1345,702Z" fill="#dcefea" stroke="#dcefea" stroke-width="1.51"/><path d="M1348,94L1291,225L1380,261Z" fill="#eac4a6" stroke="#eac4a6" stroke-width="1.51"/><path d="M1351,941L1263,1063L1419,1157Z" fill="#98c1de" stroke="#98c1de" stroke-width="1.51"/><path d="M1301,840L1351,941L1419,771Z" fill="#b7deed" stroke="#b7deed" stroke-width="1.51"/><path d="M1242,-24L1348,94L1422,-87Z" fill="#e6a290" stroke="#e6a290" stroke-width="1.51"/><path d="M1379,446L1309,559L1442,503Z" fill="#e1ecd2" stroke="#e1ecd2" stroke-width="1.51"/><path d="M1218,442L1379,446L1380,261Z" fill="#e7e3c2" stroke="#e7e3c2" stroke-width="1.51"/><path d="M1221,1285L1393,1281L1419,1157Z" fill="#859dcc" stroke="#859dcc" stroke-width="1.51"/><path d="M1355,-136L1242,-24L1422,-87Z" fill="#e19689" stroke="#e19689" stroke-width="1.51"/><path d="M1263,1063L1221,1285L1419,1157Z" fill="#8dafd4" stroke="#8dafd4" stroke-width="1.51"/><path d="M1345,702L1301,840L1419,771Z" fill="#c5e5f0" stroke="#c5e5f0" stroke-width="1.51"/><path d="M1291,225L1218,442L1380,261Z" fill="#ecd9b7" stroke="#ecd9b7" stroke-width="1.51"/><path d="M1218,442L1309,559L1379,446Z" fill="#e8eed0" stroke="#e8eed0" stroke-width="1.51"/><path d="M784,-241L953,-171L1155,-198Z" fill="#e3956e" stroke="#e3956e" stroke-width="1.51"/><path d="M1163,245L1218,442L1291,225Z" fill="#f3dcb8" stroke="#f3dcb8" stroke-width="1.51"/><path d="M1154,793L1301,840L1345,702Z" fill="#cde9f3" stroke="#cde9f3" stroke-width="1.51"/><path d="M1205,111L1291,225L1348,94Z" fill="#efbea1" stroke="#efbea1" stroke-width="1.51"/><path d="M1242,-24L1205,111L1348,94Z" fill="#f1af99" stroke="#f1af99" stroke-width="1.51"/><path d="M1192,1016L1263,1063L1351,941Z" fill="#a7cee4" stroke="#a7cee4" stroke-width="1.51"/><path d="M1262,-197L1242,-24L1355,-136Z" fill="#e19488" stroke="#e19488" stroke-width="1.51"/><path d="M1295,651L1154,793L1345,702Z" fill="#d8eff5" stroke="#d8eff5" stroke-width="1.51"/><path d="M1301,840L1192,1016L1351,941Z" fill="#b2d8e8" stroke="#b2d8e8" stroke-width="1.51"/><path d="M1062,1157L1221,1285L1263,1063Z" fill="#9ab4d4" stroke="#9ab4d4" stroke-width="1.51"/><path d="M1061,483L1098,718L1295,651Z" fill="#edf7e3" stroke="#edf7e3" stroke-width="1.51"/><path d="M1154,793L1192,1016L1301,840Z" fill="#c1e2ee" stroke="#c1e2ee" stroke-width="1.51"/><path d="M1061,483L1295,651L1309,559Z" fill="#edf7e0" stroke="#edf7e0" stroke-width="1.51"/><path d="M1218,442L1061,483L1309,559Z" fill="#f2f4d4" stroke="#f2f4d4" stroke-width="1.51"/><path d="M1163,245L1120,401L1218,442Z" fill="#f5e7bd" stroke="#f5e7bd" stroke-width="1.51"/><path d="M1062,1157L1130,1278L1221,1285Z" fill="#9aa5c9" stroke="#9aa5c9" stroke-width="1.51"/><path d="M1155,-198L1114,-81L1242,-24Z" fill="#ec9a86" stroke="#ec9a86" stroke-width="1.51"/><path d="M1155,-198L1242,-24L1262,-197Z" fill="#e39589" stroke="#e39589" stroke-width="1.51"/><path d="M1098,718L1154,793L1295,651Z" fill="#dff2f5" stroke="#dff2f5" stroke-width="1.51"/><path d="M1205,111L1163,245L1291,225Z" fill="#f5cba9" stroke="#f5cba9" stroke-width="1.51"/><path d="M1009,1251L827,1318L1130,1278Z" fill="#a3a0b5" stroke="#a3a0b5" stroke-width="1.51"/><path d="M1154,793L1069,938L1192,1016Z" fill="#c2dfe4" stroke="#c2dfe4" stroke-width="1.51"/><path d="M1192,1016L1062,1157L1263,1063Z" fill="#a7c5db" stroke="#a7c5db" stroke-width="1.51"/><path d="M130,-195L435,-151L784,-241Z" fill="#dc6a42" stroke="#dc6a42" stroke-width="1.51"/><path d="M1114,-81L1205,111L1242,-24Z" fill="#f3aa93" stroke="#f3aa93" stroke-width="1.51"/><path d="M361,1259L66,1321L673,1308Z" fill="#a96a7d" stroke="#a96a7d" stroke-width="1.51"/><path d="M1072,130L1163,245L1205,111Z" fill="#f9c79f" stroke="#f9c79f" stroke-width="1.51"/><path d="M1114,-81L1072,130L1205,111Z" fill="#f9b392" stroke="#f9b392" stroke-width="1.51"/><path d="M1120,401L1061,483L1218,442Z" fill="#f7f1c5" stroke="#f7f1c5" stroke-width="1.51"/><path d="M1069,938L1062,1157L1192,1016Z" fill="#b2ced8" stroke="#b2ced8" stroke-width="1.51"/><path d="M1061,483L1011,709L1098,718Z" fill="#f1f9dc" stroke="#f1f9dc" stroke-width="1.51"/><path d="M960,223L961,382L1120,401Z" fill="#fee7a7" stroke="#fee7a7" stroke-width="1.51"/><path d="M960,223L1120,401L1163,245Z" fill="#fbdea8" stroke="#fbdea8" stroke-width="1.51"/><path d="M1072,130L960,223L1163,245Z" fill="#fcd09a" stroke="#fcd09a" stroke-width="1.51"/><path d="M971,509L1011,709L1061,483Z" fill="#fafccb" stroke="#fafccb" stroke-width="1.51"/><path d="M1011,709L933,816L1098,718Z" fill="#e6f3e0" stroke="#e6f3e0" stroke-width="1.51"/><path d="M913,5L1072,130L1114,-81Z" fill="#faaf83" stroke="#faaf83" stroke-width="1.51"/><path d="M1098,718L933,816L1154,793Z" fill="#dff0e4" stroke="#dff0e4" stroke-width="1.51"/><path d="M933,816L1069,938L1154,793Z" fill="#d3eae0" stroke="#d3eae0" stroke-width="1.51"/><path d="M953,-171L1114,-81L1155,-198Z" fill="#e7987b" stroke="#e7987b" stroke-width="1.51"/><path d="M903,1020L1062,1157L1069,938Z" fill="#bad0cd" stroke="#bad0cd" stroke-width="1.51"/><path d="M993,152L960,223L1072,130Z" fill="#ffcb8f" stroke="#ffcb8f" stroke-width="1.51"/><path d="M1062,1157L1009,1251L1130,1278Z" fill="#a0aac2" stroke="#a0aac2" stroke-width="1.51"/><path d="M961,382L1061,483L1120,401Z" fill="#fbf1b8" stroke="#fbf1b8" stroke-width="1.51"/><path d="M903,1020L935,1147L1062,1157Z" fill="#b3c4c3" stroke="#b3c4c3" stroke-width="1.51"/><path d="M953,-171L913,5L1114,-81Z" fill="#f4a174" stroke="#f4a174" stroke-width="1.51"/><path d="M913,5L993,152L1072,130Z" fill="#ffbe86" stroke="#ffbe86" stroke-width="1.51"/><path d="M961,382L971,509L1061,483Z" fill="#fdf6b7" stroke="#fdf6b7" stroke-width="1.51"/><path d="M933,816L903,1020L1069,938Z" fill="#cde2d1" stroke="#cde2d1" stroke-width="1.51"/><path d="M935,1147L1009,1251L1062,1157Z" fill="#a8b4c0" stroke="#a8b4c0" stroke-width="1.51"/><path d="M831,977L903,1020L933,816Z" fill="#cddcc8" stroke="#cddcc8" stroke-width="1.51"/><path d="M762,645L873,770L1011,709Z" fill="#f0f3d4" stroke="#f0f3d4" stroke-width="1.51"/><path d="M836,510L762,645L1011,709Z" fill="#f9f6c5" stroke="#f9f6c5" stroke-width="1.51"/><path d="M873,770L933,816L1011,709Z" fill="#e7f2d7" stroke="#e7f2d7" stroke-width="1.51"/><path d="M971,509L836,510L1011,709Z" fill="#fcfcc4" stroke="#fcfcc4" stroke-width="1.51"/><path d="M960,223L833,308L961,382Z" fill="#ffe198" stroke="#ffe198" stroke-width="1.51"/><path d="M961,382L874,446L971,509Z" fill="#fff4ae" stroke="#fff4ae" stroke-width="1.51"/><path d="M935,1147L827,1318L1009,1251Z" fill="#a8a7b3" stroke="#a8a7b3" stroke-width="1.51"/><path d="M784,118L960,223L993,152Z" fill="#ffc985" stroke="#ffc985" stroke-width="1.51"/><path d="M913,5L784,118L993,152Z" fill="#ffba7c" stroke="#ffba7c" stroke-width="1.51"/><path d="M781,-33L913,5L953,-171Z" fill="#f6a06b" stroke="#f6a06b" stroke-width="1.51"/><path d="M874,446L836,510L971,509Z" fill="#fff6b1" stroke="#fff6b1" stroke-width="1.51"/><path d="M784,118L833,308L960,223Z" fill="#ffcf86" stroke="#ffcf86" stroke-width="1.51"/><path d="M833,308L874,446L961,382Z" fill="#ffeaa0" stroke="#ffeaa0" stroke-width="1.51"/><path d="M903,1020L812,1114L935,1147Z" fill="#b7c2bb" stroke="#b7c2bb" stroke-width="1.51"/><path d="M812,1114L827,1318L935,1147Z" fill="#acadb1" stroke="#acadb1" stroke-width="1.51"/><path d="M784,-241L781,-33L953,-171Z" fill="#ea9364" stroke="#ea9364" stroke-width="1.51"/><path d="M873,770L831,977L933,816Z" fill="#dae7cd" stroke="#dae7cd" stroke-width="1.51"/><path d="M717,914L831,977L873,770Z" fill="#d6dec4" stroke="#d6dec4" stroke-width="1.51"/><path d="M781,-33L784,118L913,5Z" fill="#fcab6f" stroke="#fcab6f" stroke-width="1.51"/><path d="M831,977L812,1114L903,1020Z" fill="#bfcabe" stroke="#bfcabe" stroke-width="1.51"/><path d="M812,1114L673,1308L827,1318Z" fill="#aa9da4" stroke="#aa9da4" stroke-width="1.51"/><path d="M679,844L717,914L873,770Z" fill="#dee0c2" stroke="#dee0c2" stroke-width="1.51"/><path d="M614,359L836,510L874,446Z" fill="#ffe99e" stroke="#ffe99e" stroke-width="1.51"/><path d="M833,308L614,359L874,446Z" fill="#ffe294" stroke="#ffe294" stroke-width="1.51"/><path d="M762,645L679,844L873,770Z" fill="#ebe8c7" stroke="#ebe8c7" stroke-width="1.51"/><path d="M435,-151L540,-128L784,-241Z" fill="#e27b4d" stroke="#e27b4d" stroke-width="1.51"/><path d="M657,-132L781,-33L784,-241Z" fill="#ea8e5b" stroke="#ea8e5b" stroke-width="1.51"/><path d="M663,153L656,283L784,118Z" fill="#febf74" stroke="#febf74" stroke-width="1.51"/><path d="M717,914L610,1113L812,1114Z" fill="#bfc1b0" stroke="#bfc1b0" stroke-width="1.51"/><path d="M610,1113L673,1308L812,1114Z" fill="#afa7a4" stroke="#afa7a4" stroke-width="1.51"/><path d="M717,914L812,1114L831,977Z" fill="#c5cdbb" stroke="#c5cdbb" stroke-width="1.51"/><path d="M656,283L614,359L833,308Z" fill="#ffd585" stroke="#ffd585" stroke-width="1.51"/><path d="M784,118L656,283L833,308Z" fill="#ffcd7e" stroke="#ffcd7e" stroke-width="1.51"/><path d="M614,359L717,567L836,510Z" fill="#ffea9f" stroke="#ffea9f" stroke-width="1.51"/><path d="M717,567L762,645L836,510Z" fill="#fdf1b3" stroke="#fdf1b3" stroke-width="1.51"/><path d="M781,-33L709,-25L784,118Z" fill="#fba568" stroke="#fba568" stroke-width="1.51"/><path d="M-88,1301L-235,1305L66,1321Z" fill="#963862" stroke="#963862" stroke-width="1.51"/><path d="M657,-132L709,-25L781,-33Z" fill="#f3965c" stroke="#f3965c" stroke-width="1.51"/><path d="M612,626L569,672L679,844Z" fill="#f2dfbb" stroke="#f2dfbb" stroke-width="1.51"/><path d="M614,359L564,417L717,567Z" fill="#ffde92" stroke="#ffde92" stroke-width="1.51"/><path d="M612,626L679,844L762,645Z" fill="#f2e6c1" stroke="#f2e6c1" stroke-width="1.51"/><path d="M540,-128L657,-132L784,-241Z" fill="#e48454" stroke="#e48454" stroke-width="1.51"/><path d="M709,-25L663,153L784,118Z" fill="#fdad6b" stroke="#fdad6b" stroke-width="1.51"/><path d="M576,74L663,153L709,-25Z" fill="#fca363" stroke="#fca363" stroke-width="1.51"/><path d="M548,983L610,1113L717,914Z" fill="#c7bfab" stroke="#c7bfab" stroke-width="1.51"/><path d="M717,567L612,626L762,645Z" fill="#faebb3" stroke="#faebb3" stroke-width="1.51"/><path d="M564,417L612,626L717,567Z" fill="#ffe69f" stroke="#ffe69f" stroke-width="1.51"/><path d="M679,844L581,863L717,914Z" fill="#dad5b7" stroke="#dad5b7" stroke-width="1.51"/><path d="M581,863L548,983L717,914Z" fill="#d4cab0" stroke="#d4cab0" stroke-width="1.51"/><path d="M569,672L581,863L679,844Z" fill="#e7d7b6" stroke="#e7d7b6" stroke-width="1.51"/><path d="M657,-132L540,-128L709,-25Z" fill="#f08852" stroke="#f08852" stroke-width="1.51"/><path d="M540,-128L576,74L709,-25Z" fill="#f59056" stroke="#f59056" stroke-width="1.51"/><path d="M256,1254L66,1321L361,1259Z" fill="#aa5d76" stroke="#aa5d76" stroke-width="1.51"/><path d="M564,417L465,535L612,626Z" fill="#ffdd95" stroke="#ffdd95" stroke-width="1.51"/><path d="M581,309L656,283L663,153Z" fill="#ffc475" stroke="#ffc475" stroke-width="1.51"/><path d="M465,1205L361,1259L673,1308Z" fill="#ad838a" stroke="#ad838a" stroke-width="1.51"/><path d="M610,1113L465,1205L673,1308Z" fill="#af9596" stroke="#af9596" stroke-width="1.51"/><path d="M540,-128L492,-100L576,74Z" fill="#f1844d" stroke="#f1844d" stroke-width="1.51"/><path d="M548,983L549,1099L610,1113Z" fill="#c0afa1" stroke="#c0afa1" stroke-width="1.51"/><path d="M581,309L614,359L656,283Z" fill="#ffcd7d" stroke="#ffcd7d" stroke-width="1.51"/><path d="M576,74L581,309L663,153Z" fill="#feb46a" stroke="#feb46a" stroke-width="1.51"/><path d="M492,-100L421,-30L576,74Z" fill="#f4854d" stroke="#f4854d" stroke-width="1.51"/><path d="M569,672L416,833L581,863Z" fill="#e9cfae" stroke="#e9cfae" stroke-width="1.51"/><path d="M576,74L372,202L581,309Z" fill="#fdae62" stroke="#fdae62" stroke-width="1.51"/><path d="M549,1099L465,1205L610,1113Z" fill="#b69e98" stroke="#b69e98" stroke-width="1.51"/><path d="M465,535L569,672L612,626Z" fill="#fcdca4" stroke="#fcdca4" stroke-width="1.51"/><path d="M581,309L564,417L614,359Z" fill="#fed081" stroke="#fed081" stroke-width="1.51"/><path d="M465,535L422,652L569,672Z" fill="#fcd5a0" stroke="#fcd5a0" stroke-width="1.51"/><path d="M422,652L416,833L569,672Z" fill="#f4cfab" stroke="#f4cfab" stroke-width="1.51"/><path d="M416,833L548,983L581,863Z" fill="#dac4a8" stroke="#dac4a8" stroke-width="1.51"/><path d="M411,383L564,417L581,309Z" fill="#ffcb7c" stroke="#ffcb7c" stroke-width="1.51"/><path d="M372,202L411,383L581,309Z" fill="#feb96b" stroke="#feb96b" stroke-width="1.51"/><path d="M421,-30L372,202L576,74Z" fill="#fa9153" stroke="#fa9153" stroke-width="1.51"/><path d="M548,983L406,1085L549,1099Z" fill="#c2aa9b" stroke="#c2aa9b" stroke-width="1.51"/><path d="M130,-195L211,-140L435,-151Z" fill="#dd5136" stroke="#dd5136" stroke-width="1.51"/><path d="M411,383L465,535L564,417Z" fill="#ffcf83" stroke="#ffcf83" stroke-width="1.51"/><path d="M326,157L372,202L421,-30Z" fill="#f98c50" stroke="#f98c50" stroke-width="1.51"/><path d="M416,833L342,931L548,983Z" fill="#d7b89f" stroke="#d7b89f" stroke-width="1.51"/><path d="M406,1085L465,1205L549,1099Z" fill="#b99a92" stroke="#b99a92" stroke-width="1.51"/><path d="M342,931L406,1085L548,983Z" fill="#caac9a" stroke="#caac9a" stroke-width="1.51"/><path d="M435,-151L492,-100L540,-128Z" fill="#e87544" stroke="#e87544" stroke-width="1.51"/><path d="M435,-151L421,-30L492,-100Z" fill="#ec7442" stroke="#ec7442" stroke-width="1.51"/><path d="M264,773L416,833L422,652Z" fill="#efc0a3" stroke="#efc0a3" stroke-width="1.51"/><path d="M333,575L422,652L465,535Z" fill="#fecd94" stroke="#fecd94" stroke-width="1.51"/><path d="M411,383L333,575L465,535Z" fill="#ffcb85" stroke="#ffcb85" stroke-width="1.51"/><path d="M406,1085L361,1259L465,1205Z" fill="#b3898a" stroke="#b3898a" stroke-width="1.51"/><path d="M221,482L333,575L411,383Z" fill="#ffbf7d" stroke="#ffbf7d" stroke-width="1.51"/><path d="M372,202L233,341L411,383Z" fill="#fdac66" stroke="#fdac66" stroke-width="1.51"/><path d="M222,-66L326,157L421,-30Z" fill="#f37545" stroke="#f37545" stroke-width="1.51"/><path d="M222,-66L421,-30L435,-151Z" fill="#eb693e" stroke="#eb693e" stroke-width="1.51"/><path d="M211,-140L222,-66L435,-151Z" fill="#e45a38" stroke="#e45a38" stroke-width="1.51"/><path d="M222,-66L196,107L326,157Z" fill="#f57245" stroke="#f57245" stroke-width="1.51"/><path d="M229,740L264,773L333,575Z" fill="#f7b99e" stroke="#f7b99e" stroke-width="1.51"/><path d="M249,1075L361,1259L406,1085Z" fill="#b88888" stroke="#b88888" stroke-width="1.51"/><path d="M342,931L249,1075L406,1085Z" fill="#c79c90" stroke="#c79c90" stroke-width="1.51"/><path d="M333,575L264,773L422,652Z" fill="#f9c29d" stroke="#f9c29d" stroke-width="1.51"/><path d="M249,1075L256,1254L361,1259Z" fill="#b27781" stroke="#b27781" stroke-width="1.51"/><path d="M233,341L221,482L411,383Z" fill="#fdb370" stroke="#fdb370" stroke-width="1.51"/><path d="M264,773L342,931L416,833Z" fill="#e2b69d" stroke="#e2b69d" stroke-width="1.51"/><path d="M204,1022L249,1075L342,931Z" fill="#c9978d" stroke="#c9978d" stroke-width="1.51"/><path d="M326,157L198,274L372,202Z" fill="#fb9755" stroke="#fb9755" stroke-width="1.51"/><path d="M198,274L233,341L372,202Z" fill="#fb9d5c" stroke="#fb9d5c" stroke-width="1.51"/><path d="M264,773L148,836L342,931Z" fill="#e1ab97" stroke="#e1ab97" stroke-width="1.51"/><path d="M148,836L204,1022L342,931Z" fill="#d69e90" stroke="#d69e90" stroke-width="1.51"/><path d="M221,482L108,522L229,740Z" fill="#fcb384" stroke="#fcb384" stroke-width="1.51"/><path d="M221,482L229,740L333,575Z" fill="#fdba8c" stroke="#fdba8c" stroke-width="1.51"/><path d="M196,107L198,274L326,157Z" fill="#f8894f" stroke="#f8894f" stroke-width="1.51"/><path d="M148,836L88,921L204,1022Z" fill="#d3968b" stroke="#d3968b" stroke-width="1.51"/><path d="M108,522L72,693L229,740Z" fill="#f6ab8d" stroke="#f6ab8d" stroke-width="1.51"/><path d="M249,1075L88,1115L256,1254Z" fill="#b5767e" stroke="#b5767e" stroke-width="1.51"/><path d="M229,740L148,836L264,773Z" fill="#eaab97" stroke="#eaab97" stroke-width="1.51"/><path d="M57,59L196,107L222,-66Z" fill="#ee613d" stroke="#ee613d" stroke-width="1.51"/><path d="M88,1115L66,1321L256,1254Z" fill="#aa5f73" stroke="#aa5f73" stroke-width="1.51"/><path d="M48,-12L57,59L222,-66Z" fill="#e85536" stroke="#e85536" stroke-width="1.51"/><path d="M44,377L221,482L233,341Z" fill="#faa568" stroke="#faa568" stroke-width="1.51"/><path d="M204,1022L88,1115L249,1075Z" fill="#bf8383" stroke="#bf8383" stroke-width="1.51"/><path d="M44,377L108,522L221,482Z" fill="#faa76d" stroke="#faa76d" stroke-width="1.51"/><path d="M198,274L44,377L233,341Z" fill="#f99a5d" stroke="#f99a5d" stroke-width="1.51"/><path d="M196,107L39,275L198,274Z" fill="#f5864d" stroke="#f5864d" stroke-width="1.51"/><path d="M72,693L148,836L229,740Z" fill="#eba794" stroke="#eba794" stroke-width="1.51"/><path d="M130,-195L48,-12L211,-140Z" fill="#de442f" stroke="#de442f" stroke-width="1.51"/><path d="M211,-140L48,-12L222,-66Z" fill="#e54f33" stroke="#e54f33" stroke-width="1.51"/><path d="M57,59L-11,206L196,107Z" fill="#ee6c40" stroke="#ee6c40" stroke-width="1.51"/><path d="M-11,206L39,275L196,107Z" fill="#f17b46" stroke="#f17b46" stroke-width="1.51"/><path d="M39,275L44,377L198,274Z" fill="#f59056" stroke="#f59056" stroke-width="1.51"/><path d="M88,921L88,1115L204,1022Z" fill="#c48884" stroke="#c48884" stroke-width="1.51"/><path d="M0,-86L48,-12L130,-195Z" fill="#dc3d2b" stroke="#dc3d2b" stroke-width="1.51"/><path d="M88,921L-37,1016L88,1115Z" fill="#c1807e" stroke="#c1807e" stroke-width="1.51"/><path d="M-38,828L88,921L148,836Z" fill="#d9978a" stroke="#d9978a" stroke-width="1.51"/><path d="M72,693L-38,828L148,836Z" fill="#e39c8d" stroke="#e39c8d" stroke-width="1.51"/><path d="M-88,1301L66,1321L88,1115Z" fill="#a4506b" stroke="#a4506b" stroke-width="1.51"/><path d="M-38,502L72,693L108,522Z" fill="#f7a679" stroke="#f7a679" stroke-width="1.51"/><path d="M-82,-239L0,-86L130,-195Z" fill="#cd2e2a" stroke="#cd2e2a" stroke-width="1.51"/><path d="M-31,410L-38,502L44,377Z" fill="#f39761" stroke="#f39761" stroke-width="1.51"/><path d="M-47,1081L-88,1301L88,1115Z" fill="#aa5f6f" stroke="#aa5f6f" stroke-width="1.51"/><path d="M-37,1016L-47,1081L88,1115Z" fill="#b87278" stroke="#b87278" stroke-width="1.51"/><path d="M44,377L-38,502L108,522Z" fill="#f69f69" stroke="#f69f69" stroke-width="1.51"/><path d="M-68,100L-11,206L57,59Z" fill="#e9623b" stroke="#e9623b" stroke-width="1.51"/><path d="M-38,502L-111,709L72,693Z" fill="#ef9c7f" stroke="#ef9c7f" stroke-width="1.51"/><path d="M-38,828L-37,1016L88,921Z" fill="#ce8882" stroke="#ce8882" stroke-width="1.51"/><path d="M-111,709L-38,828L72,693Z" fill="#e59789" stroke="#e59789" stroke-width="1.51"/><path d="M-160,1175L-88,1301L-47,1081Z" fill="#a0566c" stroke="#a0566c" stroke-width="1.51"/><path d="M-159,573L-111,709L-38,502Z" fill="#e99978" stroke="#e99978" stroke-width="1.51"/><path d="M39,275L-31,410L44,377Z" fill="#f29058" stroke="#f29058" stroke-width="1.51"/><path d="M48,-12L-68,100L57,59Z" fill="#e75336" stroke="#e75336" stroke-width="1.51"/><path d="M0,-86L-68,100L48,-12Z" fill="#e14830" stroke="#e14830" stroke-width="1.51"/><path d="M-11,206L-31,410L39,275Z" fill="#ef854f" stroke="#ef854f" stroke-width="1.51"/><path d="M-38,828L-235,951L-37,1016Z" fill="#c2807e" stroke="#c2807e" stroke-width="1.51"/><path d="M-185,213L-244,351L-31,410Z" fill="#e27f50" stroke="#e27f50" stroke-width="1.51"/><path d="M-185,213L-31,410L-11,206Z" fill="#e87c4a" stroke="#e87c4a" stroke-width="1.51"/><path d="M-82,-239L-221,-192L0,-86Z" fill="#c32227" stroke="#c32227" stroke-width="1.51"/><path d="M-221,-192L-248,-70L0,-86Z" fill="#c62427" stroke="#c62427" stroke-width="1.51"/><path d="M-248,-70L-68,100L0,-86Z" fill="#d63c2e" stroke="#d63c2e" stroke-width="1.51"/><path d="M-68,100L-185,213L-11,206Z" fill="#e4673e" stroke="#e4673e" stroke-width="1.51"/><path d="M-248,-70L-232,108L-68,100Z" fill="#d44433" stroke="#d44433" stroke-width="1.51"/><path d="M-111,709L-166,729L-38,828Z" fill="#db9187" stroke="#db9187" stroke-width="1.51"/><path d="M-159,573L-38,502L-31,410Z" fill="#ee9868" stroke="#ee9868" stroke-width="1.51"/><path d="M-244,351L-159,573L-31,410Z" fill="#e68f61" stroke="#e68f61" stroke-width="1.51"/><path d="M-247,797L-235,951L-38,828Z" fill="#c68582" stroke="#c68582" stroke-width="1.51"/><path d="M-235,951L-47,1081L-37,1016Z" fill="#b57579" stroke="#b57579" stroke-width="1.51"/><path d="M-166,729L-247,797L-38,828Z" fill="#d28c85" stroke="#d28c85" stroke-width="1.51"/><path d="M-235,951L-160,1175L-47,1081Z" fill="#aa6874" stroke="#aa6874" stroke-width="1.51"/><path d="M-232,108L-185,213L-68,100Z" fill="#db5b3b" stroke="#db5b3b" stroke-width="1.51"/><path d="M-160,1175L-235,1305L-88,1301Z" fill="#924065" stroke="#924065" stroke-width="1.51"/><path d="M-159,573L-166,729L-111,709Z" fill="#e19384" stroke="#e19384" stroke-width="1.51"/><path d="M-235,951L-235,1305L-160,1175Z" fill="#99576e" stroke="#99576e" stroke-width="1.51"/><path d="M-247,797L-166,729L-159,573Z" fill="#d98f89" stroke="#d98f89" stroke-width="1.51"/><path d="M-244,351L-247,797L-159,573Z" fill="#de9273" stroke="#de9273" stroke-width="1.51"/><path d="M-232,108L-244,351L-185,213Z" fill="#d86a42" stroke="#d86a42" stroke-width="1.51"/><path d="M-247,797L-235,1305L-235,951Z" fill="#a76c77" stroke="#a76c77" stroke-width="1.51"/><path d="M-248,-70L-244,351L-232,108Z" fill="#d2543a" stroke="#d2543a" stroke-width="1.51"/></svg>