<svg xmlns="http://www.w3.org/2000/svg" width="1920" height="1080"><path d="M673,1308L66,1321L827,1318Z" fill="#8e7080" stroke="#8e7080" stroke-width="1.51"/><path d="M784,-241L1155,-198L1262,-197Z" fill="#ba8183" stroke="#ba8183" stroke-width="1.51"/><path d="M1262,-197L1493,-187L1820,-201Z" fill="#946977" stroke="#946977" stroke-width="1.51"/><path d="M784,-241L1262,-197L1820,-201Z" fill="#a8777e" stroke="#a8777e" stroke-width="1.51"/><path d="M1393,1281L1221,1285L1827,1320Z" fill="#517ba6" stroke="#517ba6" stroke-width="1.51"/><path d="M1221,1285L827,1318L1827,1320Z" fill="#6a85aa" stroke="#6a85aa" stroke-width="1.51"/><path d="M1540,1271L1393,1281L1827,1320Z" fill="#4072a2" stroke="#4072a2" stroke-width="1.51"/><path d="M1984,1117L2076,1158L2079,938Z" fill="#2a69a4" stroke="#2a69a4" stroke-width="1.51"/><path d="M2012,279L2146,391L2159,224Z" fill="#937d90" stroke="#937d90" stroke-width="1.51"/><path d="M2024,667L2144,678L2162,483Z" fill="#8393b5" stroke="#8393b5" stroke-width="1.51"/><path d="M1979,594L2024,667L2162,483Z" fill="#8a9bbf" stroke="#8a9bbf" stroke-width="1.51"/><path d="M2159,224L2146,391L2162,483Z" fill="#8e8297" stroke="#8e8297" stroke-width="1.51"/><path d="M2162,137L2159,224L2162,483Z" fill="#8e7484" stroke="#8e7484" stroke-width="1.51"/><path d="M1976,88L2162,137L2166,-34Z" fill="#895367" stroke="#895367" stroke-width="1.51"/><path d="M2006,-81L1976,88L2166,-34Z" fill="#884d65" stroke="#884d65" stroke-width="1.51"/><path d="M2076,1158L2108,1305L2176,771Z" fill="#245f97" stroke="#245f97" stroke-width="1.51"/><path d="M2079,938L2076,1158L2176,771Z" fill="#3f71a3" stroke="#3f71a3" stroke-width="1.51"/><path d="M1964,774L2079,938L2176,771Z" fill="#6087b2" stroke="#6087b2" stroke-width="1.51"/><path d="M2144,678L2024,667L2176,771Z" fill="#768db2" stroke="#768db2" stroke-width="1.51"/><path d="M2024,667L1964,774L2176,771Z" fill="#7591ba" stroke="#7591ba" stroke-width="1.51"/><path d="M2162,483L2144,678L2176,771Z" fill="#7a8bac" stroke="#7a8bac" stroke-width="1.51"/><path d="M2166,-34L2162,137L2176,771Z" fill="#8d7585" stroke="#8d7585" stroke-width="1.51"/><path d="M2162,137L2162,483L2176,771Z" fill="#8a89a3" stroke="#8a89a3" stroke-width="1.51"/><path d="M2012,279L2159,224L2162,137Z" fill="#926f7e" stroke="#926f7e" stroke-width="1.51"/><path d="M1976,88L2012,279L2162,137Z" fill="#956d80" stroke="#956d80" stroke-width="1.51"/><path d="M2146,391L1958,430L2162,483Z" fill="#9290ac" stroke="#9290ac" stroke-width="1.51"/><path d="M2060,-151L2006,-81L2166,-34Z" fill="#7e3c58" stroke="#7e3c58" stroke-width="1.51"/><path d="M1958,430L1979,594L2162,483Z" fill="#939dbe" stroke="#939dbe" stroke-width="1.51"/><path d="M1932,1247L1827,1320L2108,1305Z" fill="#17518f" stroke="#17518f" stroke-width="1.51"/><path d="M2012,279L1958,430L2146,391Z" fill="#9890a9" stroke="#9890a9" stroke-width="1.51"/><path d="M1958,968L1984,1117L2079,938Z" fill="#3576af" stroke="#3576af" stroke-width="1.51"/><path d="M2076,1158L1932,1247L2108,1305Z" fill="#17518f" stroke="#17518f" stroke-width="1.51"/><path d="M1984,1117L1932,1247L2076,1158Z" fill="#1f60a4" stroke="#1f60a4" stroke-width="1.51"/><path d="M1964,774L1958,968L2079,938Z" fill="#5688b9" stroke="#5688b9" stroke-width="1.51"/><path d="M1965,-176L2006,-81L2060,-151Z" fill="#7c3f5e" stroke="#7c3f5e" stroke-width="1.51"/><path d="M1130,1278L827,1318L1221,1285Z" fill="#8291b3" stroke="#8291b3" stroke-width="1.51"/><path d="M1858,827L1958,968L1964,774Z" fill="#6396c6" stroke="#6396c6" stroke-width="1.51"/><path d="M1847,5L1976,88L2006,-81Z" fill="#945c76" stroke="#945c76" stroke-width="1.51"/><path d="M1976,88L1803,262L2012,279Z" fill="#a28497" stroke="#a28497" stroke-width="1.51"/><path d="M1979,594L1964,774L2024,667Z" fill="#839ec7" stroke="#839ec7" stroke-width="1.51"/><path d="M1802,108L1803,262L1976,88Z" fill="#a37f91" stroke="#a37f91" stroke-width="1.51"/><path d="M1958,430L1828,528L1979,594Z" fill="#9babcf" stroke="#9babcf" stroke-width="1.51"/><path d="M1803,262L1958,430L2012,279Z" fill="#a297af" stroke="#a297af" stroke-width="1.51"/><path d="M1775,722L1964,774L1979,594Z" fill="#87a7d0" stroke="#87a7d0" stroke-width="1.51"/><path d="M1958,968L1818,1026L1984,1117Z" fill="#347cb7" stroke="#347cb7" stroke-width="1.51"/><path d="M1965,-176L1847,5L2006,-81Z" fill="#8d4d6c" stroke="#8d4d6c" stroke-width="1.51"/><path d="M1803,262L1774,366L1958,430Z" fill="#a6a4b9" stroke="#a6a4b9" stroke-width="1.51"/><path d="M1820,-201L1847,5L1965,-176Z" fill="#884f6b" stroke="#884f6b" stroke-width="1.51"/><path d="M1828,528L1775,722L1979,594Z" fill="#93b0d4" stroke="#93b0d4" stroke-width="1.51"/><path d="M1822,1173L1932,1247L1984,1117Z" fill="#2469ae" stroke="#2469ae" stroke-width="1.51"/><path d="M1818,1026L1822,1173L1984,1117Z" fill="#3076b5" stroke="#3076b5" stroke-width="1.51"/><path d="M1847,5L1802,108L1976,88Z" fill="#9d6d81" stroke="#9d6d81" stroke-width="1.51"/><path d="M1775,722L1858,827L1964,774Z" fill="#78a3ce" stroke="#78a3ce" stroke-width="1.51"/><path d="M1858,827L1818,1026L1958,968Z" fill="#508ec1" stroke="#508ec1" stroke-width="1.51"/><path d="M1774,366L1828,528L1958,430Z" fill="#a2acc8" stroke="#a2acc8" stroke-width="1.51"/><path d="M-82,-239L130,-195L784,-241Z" fill="#a93f3c" stroke="#a93f3c" stroke-width="1.51"/><path d="M1731,921L1818,1026L1858,827Z" fill="#5898c6" stroke="#5898c6" stroke-width="1.51"/><path d="M1822,1173L1827,1320L1932,1247Z" fill="#23619f" stroke="#23619f" stroke-width="1.51"/><path d="M1493,-187L1631,-139L1820,-201Z" fill="#8b6072" stroke="#8b6072" stroke-width="1.51"/><path d="M1818,1026L1705,1064L1822,1173Z" fill="#3881ba" stroke="#3881ba" stroke-width="1.51"/><path d="M1822,1173L1713,1232L1827,1320Z" fill="#2969a4" stroke="#2969a4" stroke-width="1.51"/><path d="M1744,516L1775,722L1828,528Z" fill="#9bb9d8" stroke="#9bb9d8" stroke-width="1.51"/><path d="M1774,366L1744,516L1828,528Z" fill="#a4b6cf" stroke="#a4b6cf" stroke-width="1.51"/><path d="M1820,-201L1631,-139L1847,5Z" fill="#925b70" stroke="#925b70" stroke-width="1.51"/><path d="M1631,-139L1654,11L1847,5Z" fill="#9e6b7a" stroke="#9e6b7a" stroke-width="1.51"/><path d="M1775,722L1731,921L1858,827Z" fill="#72a7cf" stroke="#72a7cf" stroke-width="1.51"/><path d="M1705,727L1731,921L1775,722Z" fill="#7cafd3" stroke="#7cafd3" stroke-width="1.51"/><path d="M1713,1232L1540,1271L1827,1320Z" fill="#2d6ba0" stroke="#2d6ba0" stroke-width="1.51"/><path d="M1705,101L1802,108L1847,5Z" fill="#a37685" stroke="#a37685" stroke-width="1.51"/><path d="M1654,11L1705,101L1847,5Z" fill="#a37683" stroke="#a37683" stroke-width="1.51"/><path d="M1744,516L1705,727L1775,722Z" fill="#94b9d9" stroke="#94b9d9" stroke-width="1.51"/><path d="M1802,108L1705,101L1803,262Z" fill="#a88995" stroke="#a88995" stroke-width="1.51"/><path d="M1731,921L1705,1064L1818,1026Z" fill="#4590c2" stroke="#4590c2" stroke-width="1.51"/><path d="M1705,1064L1713,1232L1822,1173Z" fill="#337bb7" stroke="#337bb7" stroke-width="1.51"/><path d="M1705,727L1628,777L1731,921Z" fill="#7bb2d4" stroke="#7bb2d4" stroke-width="1.51"/><path d="M1630,308L1774,366L1803,262Z" fill="#aca8b6" stroke="#aca8b6" stroke-width="1.51"/><path d="M1705,101L1630,308L1803,262Z" fill="#ae9ca3" stroke="#ae9ca3" stroke-width="1.51"/><path d="M1584,149L1630,308L1705,101Z" fill="#b59ca0" stroke="#b59ca0" stroke-width="1.51"/><path d="M1544,626L1705,727L1744,516Z" fill="#9fc3dd" stroke="#9fc3dd" stroke-width="1.51"/><path d="M1631,337L1744,516L1774,366Z" fill="#aab7c9" stroke="#aab7c9" stroke-width="1.51"/><path d="M1630,308L1631,337L1774,366Z" fill="#b0b1bd" stroke="#b0b1bd" stroke-width="1.51"/><path d="M1705,1064L1575,1089L1713,1232Z" fill="#4087bd" stroke="#4087bd" stroke-width="1.51"/><path d="M1631,337L1543,419L1744,516Z" fill="#b2c0d0" stroke="#b2c0d0" stroke-width="1.51"/><path d="M1543,419L1522,502L1744,516Z" fill="#b5c8d9" stroke="#b5c8d9" stroke-width="1.51"/><path d="M1522,502L1544,626L1744,516Z" fill="#b1cde3" stroke="#b1cde3" stroke-width="1.51"/><path d="M1631,-139L1582,-90L1654,11Z" fill="#a56e7a" stroke="#a56e7a" stroke-width="1.51"/><path d="M1503,962L1575,1089L1705,1064Z" fill="#559ac8" stroke="#559ac8" stroke-width="1.51"/><path d="M1503,962L1705,1064L1731,921Z" fill="#589ec9" stroke="#589ec9" stroke-width="1.51"/><path d="M1526,874L1503,962L1731,921Z" fill="#71aed1" stroke="#71aed1" stroke-width="1.51"/><path d="M1628,777L1526,874L1731,921Z" fill="#79b3d5" stroke="#79b3d5" stroke-width="1.51"/><path d="M1544,626L1628,777L1705,727Z" fill="#99c2dd" stroke="#99c2dd" stroke-width="1.51"/><path d="M1575,1089L1540,1271L1713,1232Z" fill="#4581b8" stroke="#4581b8" stroke-width="1.51"/><path d="M1654,11L1584,149L1705,101Z" fill="#ae878e" stroke="#ae878e" stroke-width="1.51"/><path d="M1584,149L1519,302L1630,308Z" fill="#beaeb0" stroke="#beaeb0" stroke-width="1.51"/><path d="M1582,-90L1584,149L1654,11Z" fill="#af8087" stroke="#af8087" stroke-width="1.51"/><path d="M1582,-90L1422,-87L1584,149Z" fill="#b58287" stroke="#b58287" stroke-width="1.51"/><path d="M1544,626L1419,771L1628,777Z" fill="#a3cae2" stroke="#a3cae2" stroke-width="1.51"/><path d="M1630,308L1519,302L1631,337Z" fill="#bcb7bd" stroke="#bcb7bd" stroke-width="1.51"/><path d="M1519,302L1543,419L1631,337Z" fill="#bec0c7" stroke="#bec0c7" stroke-width="1.51"/><path d="M1493,-187L1582,-90L1631,-139Z" fill="#9e6b78" stroke="#9e6b78" stroke-width="1.51"/><path d="M1422,-87L1348,94L1584,149Z" fill="#c39392" stroke="#c39392" stroke-width="1.51"/><path d="M1419,771L1526,874L1628,777Z" fill="#92c2dd" stroke="#92c2dd" stroke-width="1.51"/><path d="M1419,1157L1540,1271L1575,1089Z" fill="#588fc3" stroke="#588fc3" stroke-width="1.51"/><path d="M1380,261L1519,302L1584,149Z" fill="#c8b4b1" stroke="#c8b4b1" stroke-width="1.51"/><path d="M1348,94L1380,261L1584,149Z" fill="#ccaca7" stroke="#ccaca7" stroke-width="1.51"/><path d="M1493,-187L1422,-87L1582,-90Z" fill="#ab737c" stroke="#ab737c" stroke-width="1.51"/><path d="M1503,962L1419,1157L1575,1089Z" fill="#639fcb" stroke="#639fcb" stroke-width="1.51"/><path d="M1419,1157L1393,1281L1540,1271Z" fill="#5c89b7" stroke="#5c89b7" stroke-width="1.51"/><path d="M1519,302L1379,446L1543,419Z" fill="#c8ced3" stroke="#c8ced3" stroke-width="1.51"/><path d="M1442,503L1522,502L1543,419Z" fill="#c2d3de" stroke="#c2d3de" stroke-width="1.51"/><path d="M1442,503L1345,702L1544,626Z" fill="#bfdaea" stroke="#bfdaea" stroke-width="1.51"/><path d="M1345,702L1419,771L1544,626Z" fill="#b5d6e8" stroke="#b5d6e8" stroke-width="1.51"/><path d="M1522,502L1442,503L1544,626Z" fill="#bfd9e8" stroke="#bfd9e8" stroke-width="1.51"/><path d="M1379,446L1442,503L1543,419Z" fill="#c9d6de" stroke="#c9d6de" stroke-width="1.51"/><path d="M1351,941L1419,1157L1503,962Z" fill="#72aed2" stroke="#72aed2" stroke-width="1.51"/><path d="M1380,261L1379,446L1519,302Z" fill="#d0caca" stroke="#d0caca" stroke-width="1.51"/><path d="M1351,941L1503,962L1526,874Z" fill="#82bad8" stroke="#82bad8" stroke-width="1.51"/><path d="M1419,771L1351,941L1526,874Z" fill="#95c6de" stroke="#95c6de" stroke-width="1.51"/><path d="M1262,-197L1355,-136L1493,-187Z" fill="#ab777e" stroke="#ab777e" stroke-width="1.51"/><path d="M1309,559L1345,702L1442,503Z" fill="#cbe1ed" stroke="#cbe1ed" stroke-width="1.51"/><path d="M1355,-136L1422,-87L1493,-187Z" fill="#af787e" stroke="#af787e" stroke-width="1.51"/><path d="M1309,559L1295,651L1345,702Z" fill="#cbe1ee" stroke="#cbe1ee" stroke-width="1.51"/><path d="M1348,94L1291,225L1380,261Z" fill="#d8b7ae" stroke="#d8b7ae" stroke-width="1.51"/><path d="M1351,941L1263,1063L1419,1157Z" fill="#7badd2" stroke="#7badd2" stroke-width="1.51"/><path d="M1301,840L1351,941L1419,771Z" fill="#a0cce2" stroke="#a0cce2" stroke-width="1.51"/><path d="M1242,-24L1348,94L1422,-87Z" fill="#ca918e" stroke="#ca918e" stroke-width="1.51"/><path d="M1379,446L1309,559L1442,503Z" fill="#d1dfe8" stroke="#d1dfe8" stroke-width="1.51"/><path d="M1218,442L1379,446L1380,261Z" fill="#dbd8d8" stroke="#dbd8d8" stroke-width="1.51"/><path d="M1221,1285L1393,1281L1419,1157Z" fill="#6a8eb9" stroke="#6a8eb9" stroke-width="1.51"/><path d="M1355,-136L1242,-24L1422,-87Z" fill="#c48485" stroke="#c48485" stroke-width="1.51"/><path d="M1263,1063L1221,1285L1419,1157Z" fill="#789fcb" stroke="#789fcb" stroke-width="1.51"/><path d="M1345,702L1301,840L1419,771Z" fill="#b1d4e6" stroke="#b1d4e6" stroke-width="1.51"/><path d="M1291,225L1218,442L1380,261Z" fill="#dfcec8" stroke="#dfcec8" stroke-width="1.51"/><path d="M1218,442L1309,559L1379,446Z" fill="#dbe3e7" stroke="#dbe3e7" stroke-width="1.51"/><path d="M784,-241L953,-171L1155,-198Z" fill="#c38585" stroke="#c38585" stroke-width="1.51"/><path d="M1163,245L1218,442L1291,225Z" fill="#e7d2ca" stroke="#e7d2ca" stroke-width="1.51"/><path d="M1154,793L1301,840L1345,702Z" fill="#bbd9e9" stroke="#bbd9e9" stroke-width="1.51"/><path d="M1205,111L1291,225L1348,94Z" fill="#dbb0a8" stroke="#dbb0a8" stroke-width="1.51"/><path d="M1242,-24L1205,111L1348,94Z" fill="#d8a09a" stroke="#d8a09a" stroke-width="1.51"/><path d="M1192,1016L1263,1063L1351,941Z" fill="#8bb9d8" stroke="#8bb9d8" stroke-width="1.51"/><path d="M1262,-197L1242,-24L1355,-136Z" fill="#c28283" stroke="#c28283" stroke-width="1.51"/><path d="M1295,651L1154,793L1345,702Z" fill="#c7dfed" stroke="#c7dfed" stroke-width="1.51"/><path d="M1301,840L1192,1016L1351,941Z" fill="#99c4df" stroke="#99c4df" stroke-width="1.51"/><path d="M1062,1157L1221,1285L1263,1063Z" fill="#87a5cf" stroke="#87a5cf" stroke-width="1.51"/><path d="M1061,483L1098,718L1295,651Z" fill="#e0ebf3" stroke="#e0ebf3" stroke-width="1.51"/><path d="M1154,793L1192,1016L1301,840Z" fill="#acd0e5" stroke="#acd0e5" stroke-width="1.51"/><path d="M1061,483L1295,651L1309,559Z" fill="#dfebf3" stroke="#dfebf3" stroke-width="1.51"/><path d="M1218,442L1061,483L1309,559Z" fill="#e6ebed" stroke="#e6ebed" stroke-width="1.51"/><path d="M1163,245L1120,401L1218,442Z" fill="#ecdfd8" stroke="#ecdfd8" stroke-width="1.51"/><path d="M1062,1157L1130,1278L1221,1285Z" fill="#8399bf" stroke="#8399bf" stroke-width="1.51"/><path d="M1155,-198L1114,-81L1242,-24Z" fill="#d28a88" stroke="#d28a88" stroke-width="1.51"/><path d="M1155,-198L1242,-24L1262,-197Z" fill="#c38385" stroke="#c38385" stroke-width="1.51"/><path d="M1098,718L1154,793L1295,651Z" fill="#cfe4f0" stroke="#cfe4f0" stroke-width="1.51"/><path d="M1205,111L1163,245L1291,225Z" fill="#e5beb3" stroke="#e5beb3" stroke-width="1.51"/><path d="M1009,1251L827,1318L1130,1278Z" fill="#8996b7" stroke="#8996b7" stroke-width="1.51"/><path d="M1154,793L1069,938L1192,1016Z" fill="#accee3" stroke="#accee3" stroke-width="1.51"/><path d="M1192,1016L1062,1157L1263,1063Z" fill="#8eb3d6" stroke="#8eb3d6" stroke-width="1.51"/><path d="M130,-195L435,-151L784,-241Z" fill="#bb5b4f" stroke="#bb5b4f" stroke-width="1.51"/><path d="M1114,-81L1205,111L1242,-24Z" fill="#da9a94" stroke="#da9a94" stroke-width="1.51"/><path d="M361,1259L66,1321L673,1308Z" fill="#8d6172" stroke="#8d6172" stroke-width="1.51"/><path d="M1072,130L1163,245L1205,111Z" fill="#e9bbae" stroke="#e9bbae" stroke-width="1.51"/><path d="M1114,-81L1072,130L1205,111Z" fill="#e2a59b" stroke="#e2a59b" stroke-width="1.51"/><path d="M1120,401L1061,483L1218,442Z" fill="#ece8e6" stroke="#ece8e6" stroke-width="1.51"/><path d="M1069,938L1062,1157L1192,1016Z" fill="#97bcda" stroke="#97bcda" stroke-width="1.51"/><path d="M1061,483L1011,709L1098,718Z" fill="#e4eef4" stroke="#e4eef4" stroke-width="1.51"/><path d="M960,223L961,382L1120,401Z" fill="#f7dfd4" stroke="#f7dfd4" stroke-width="1.51"/><path d="M960,223L1120,401L1163,245Z" fill="#f2d5c9" stroke="#f2d5c9" stroke-width="1.51"/><path d="M1072,130L960,223L1163,245Z" fill="#f1c6b6" stroke="#f1c6b6" stroke-width="1.51"/><path d="M971,509L1011,709L1061,483Z" fill="#f0f3f5" stroke="#f0f3f5" stroke-width="1.51"/><path d="M1011,709L933,816L1098,718Z" fill="#d7e7f0" stroke="#d7e7f0" stroke-width="1.51"/><path d="M913,5L1072,130L1114,-81Z" fill="#e6a298" stroke="#e6a298" stroke-width="1.51"/><path d="M1098,718L933,816L1154,793Z" fill="#cee3ee" stroke="#cee3ee" stroke-width="1.51"/><path d="M933,816L1069,938L1154,793Z" fill="#c1dbea" stroke="#c1dbea" stroke-width="1.51"/><path d="M953,-171L1114,-81L1155,-198Z" fill="#cb8786" stroke="#cb8786" stroke-width="1.51"/><path d="M903,1020L1062,1157L1069,938Z" fill="#9fbfdb" stroke="#9fbfdb" stroke-width="1.51"/><path d="M993,152L960,223L1072,130Z" fill="#f3c1b1" stroke="#f3c1b1" stroke-width="1.51"/><path d="M1062,1157L1009,1251L1130,1278Z" fill="#8a9dc3" stroke="#8a9dc3" stroke-width="1.51"/><path d="M961,382L1061,483L1120,401Z" fill="#f4eae4" stroke="#f4eae4" stroke-width="1.51"/><path d="M903,1020L935,1147L1062,1157Z" fill="#9db6d7" stroke="#9db6d7" stroke-width="1.51"/><path d="M953,-171L913,5L1114,-81Z" fill="#df928c" stroke="#df928c" stroke-width="1.51"/><path d="M913,5L993,152L1072,130Z" fill="#efb2a4" stroke="#efb2a4" stroke-width="1.51"/><path d="M961,382L971,509L1061,483Z" fill="#f6eeea" stroke="#f6eeea" stroke-width="1.51"/><path d="M933,816L903,1020L1069,938Z" fill="#b8d2e5" stroke="#b8d2e5" stroke-width="1.51"/><path d="M935,1147L1009,1251L1062,1157Z" fill="#95a8d0" stroke="#95a8d0" stroke-width="1.51"/><path d="M831,977L903,1020L933,816Z" fill="#b8cddd" stroke="#b8cddd" stroke-width="1.51"/><path d="M762,645L873,770L1011,709Z" fill="#e5e9ec" stroke="#e5e9ec" stroke-width="1.51"/><path d="M836,510L762,645L1011,709Z" fill="#efeeec" stroke="#efeeec" stroke-width="1.51"/><path d="M873,770L933,816L1011,709Z" fill="#d9e6ee" stroke="#d9e6ee" stroke-width="1.51"/><path d="M971,509L836,510L1011,709Z" fill="#f4f4f4" stroke="#f4f4f4" stroke-width="1.51"/><path d="M960,223L833,308L961,382Z" fill="#fbd9ca" stroke="#fbd9ca" stroke-width="1.51"/><path d="M961,382L874,446L971,509Z" fill="#faede6" stroke="#faede6" stroke-width="1.51"/><path d="M935,1147L827,1318L1009,1251Z" fill="#929ebf" stroke="#929ebf" stroke-width="1.51"/><path d="M784,118L960,223L993,152Z" fill="#f6bfad" stroke="#f6bfad" stroke-width="1.51"/><path d="M913,5L784,118L993,152Z" fill="#f0af9e" stroke="#f0af9e" stroke-width="1.51"/><path d="M781,-33L913,5L953,-171Z" fill="#e29187" stroke="#e29187" stroke-width="1.51"/><path d="M874,446L836,510L971,509Z" fill="#faeee8" stroke="#faeee8" stroke-width="1.51"/><path d="M784,118L833,308L960,223Z" fill="#f9c7b1" stroke="#f9c7b1" stroke-width="1.51"/><path d="M833,308L874,446L961,382Z" fill="#fbe4d7" stroke="#fbe4d7" stroke-width="1.51"/><path d="M903,1020L812,1114L935,1147Z" fill="#a2b4d0" stroke="#a2b4d0" stroke-width="1.51"/><path d="M812,1114L827,1318L935,1147Z" fill="#9aa3c5" stroke="#9aa3c5" stroke-width="1.51"/><path d="M784,-241L781,-33L953,-171Z" fill="#d2847d" stroke="#d2847d" stroke-width="1.51"/><path d="M873,770L831,977L933,816Z" fill="#c9dae3" stroke="#c9dae3" stroke-width="1.51"/><path d="M717,914L831,977L873,770Z" fill="#c4d1d9" stroke="#c4d1d9" stroke-width="1.51"/><path d="M781,-33L784,118L913,5Z" fill="#eb9f8e" stroke="#eb9f8e" stroke-width="1.51"/><path d="M831,977L812,1114L903,1020Z" fill="#a7bbd1" stroke="#a7bbd1" stroke-width="1.51"/><path d="M812,1114L673,1308L827,1318Z" fill="#9593af" stroke="#9593af" stroke-width="1.51"/><path d="M679,844L717,914L873,770Z" fill="#ced4d8" stroke="#ced4d8" stroke-width="1.51"/><path d="M614,359L836,510L874,446Z" fill="#fce3d5" stroke="#fce3d5" stroke-width="1.51"/><path d="M833,308L614,359L874,446Z" fill="#fdddcb" stroke="#fdddcb" stroke-width="1.51"/><path d="M762,645L679,844L873,770Z" fill="#dedede" stroke="#dedede" stroke-width="1.51"/><path d="M435,-151L540,-128L784,-241Z" fill="#c66d60" stroke="#c66d60" stroke-width="1.51"/><path d="M657,-132L781,-33L784,-241Z" fill="#d48075" stroke="#d48075" stroke-width="1.51"/><path d="M663,153L656,283L784,118Z" fill="#f7b79c" stroke="#f7b79c" stroke-width="1.51"/><path d="M717,914L610,1113L812,1114Z" fill="#aab2c4" stroke="#aab2c4" stroke-width="1.51"/><path d="M610,1113L673,1308L812,1114Z" fill="#a09cb9" stroke="#a09cb9" stroke-width="1.51"/><path d="M717,914L812,1114L831,977Z" fill="#aebdce" stroke="#aebdce" stroke-width="1.51"/><path d="M656,283L614,359L833,308Z" fill="#fcceb7" stroke="#fcceb7" stroke-width="1.51"/><path d="M784,118L656,283L833,308Z" fill="#fac5ac" stroke="#fac5ac" stroke-width="1.51"/><path d="M614,359L717,567L836,510Z" fill="#fce4d6" stroke="#fce4d6" stroke-width="1.51"/><path d="M717,567L762,645L836,510Z" fill="#f6eae4" stroke="#f6eae4" stroke-width="1.51"/><path d="M781,-33L709,-25L784,118Z" fill="#ea9987" stroke="#ea9987" stroke-width="1.51"/><path d="M-88,1301L-235,1305L66,1321Z" fill="#6d2f4b" stroke="#6d2f4b" stroke-width="1.51"/><path d="M657,-132L709,-25L781,-33Z" fill="#e18978" stroke="#e18978" stroke-width="1.51"/><path d="M612,626L569,672L679,844Z" fill="#e6d4cd" stroke="#e6d4cd" stroke-width="1.51"/><path d="M614,359L564,417L717,567Z" fill="#fcd8c5" stroke="#fcd8c5" stroke-width="1.51"/><path d="M612,626L679,844L762,645Z" fill="#e8ddd7" stroke="#e8ddd7" stroke-width="1.51"/><path d="M540,-128L657,-132L784,-241Z" fill="#ca756a" stroke="#ca756a" stroke-width="1.51"/><path d="M709,-25L663,153L784,118Z" fill="#efa38c" stroke="#efa38c" stroke-width="1.51"/><path d="M576,74L663,153L709,-25Z" fill="#ec9980" stroke="#ec9980" stroke-width="1.51"/><path d="M548,983L610,1113L717,914Z" fill="#b1b0bb" stroke="#b1b0bb" stroke-width="1.51"/><path d="M717,567L612,626L762,645Z" fill="#f3e3db" stroke="#f3e3db" stroke-width="1.51"/><path d="M564,417L612,626L717,567Z" fill="#fbdfd2" stroke="#fbdfd2" stroke-width="1.51"/><path d="M679,844L581,863L717,914Z" fill="#cac8ca" stroke="#cac8ca" stroke-width="1.51"/><path d="M581,863L548,983L717,914Z" fill="#c2bcc0" stroke="#c2bcc0" stroke-width="1.51"/><path d="M569,672L581,863L679,844Z" fill="#d8cbc7" stroke="#d8cbc7" stroke-width="1.51"/><path d="M657,-132L540,-128L709,-25Z" fill="#dc7a6b" stroke="#dc7a6b" stroke-width="1.51"/><path d="M540,-128L576,74L709,-25Z" fill="#e1836f" stroke="#e1836f" stroke-width="1.51"/><path d="M256,1254L66,1321L361,1259Z" fill="#895367" stroke="#895367" stroke-width="1.51"/><path d="M564,417L465,535L612,626Z" fill="#fad6c5" stroke="#fad6c5" stroke-width="1.51"/><path d="M581,309L656,283L663,153Z" fill="#f9bb9f" stroke="#f9bb9f" stroke-width="1.51"/><path d="M465,1205L361,1259L673,1308Z" fill="#96798a" stroke="#96798a" stroke-width="1.51"/><path d="M610,1113L465,1205L673,1308Z" fill="#9d8aa1" stroke="#9d8aa1" stroke-width="1.51"/><path d="M540,-128L492,-100L576,74Z" fill="#dd7763" stroke="#dd7763" stroke-width="1.51"/><path d="M548,983L549,1099L610,1113Z" fill="#aba0ae" stroke="#aba0ae" stroke-width="1.51"/><path d="M581,309L614,359L656,283Z" fill="#fbc6ab" stroke="#fbc6ab" stroke-width="1.51"/><path d="M576,74L581,309L663,153Z" fill="#f4ac8e" stroke="#f4ac8e" stroke-width="1.51"/><path d="M492,-100L421,-30L576,74Z" fill="#df7861" stroke="#df7861" stroke-width="1.51"/><path d="M569,672L416,833L581,863Z" fill="#d9c2bb" stroke="#d9c2bb" stroke-width="1.51"/><path d="M576,74L372,202L581,309Z" fill="#f3a483" stroke="#f3a483" stroke-width="1.51"/><path d="M549,1099L465,1205L610,1113Z" fill="#a592a6" stroke="#a592a6" stroke-width="1.51"/><path d="M465,535L569,672L612,626Z" fill="#f2d3c5" stroke="#f2d3c5" stroke-width="1.51"/><path d="M581,309L564,417L614,359Z" fill="#fbcab1" stroke="#fbcab1" stroke-width="1.51"/><path d="M465,535L422,652L569,672Z" fill="#f1ccbd" stroke="#f1ccbd" stroke-width="1.51"/><path d="M422,652L416,833L569,672Z" fill="#e5c3b8" stroke="#e5c3b8" stroke-width="1.51"/><path d="M416,833L548,983L581,863Z" fill="#c7b6b4" stroke="#c7b6b4" stroke-width="1.51"/><path d="M411,383L564,417L581,309Z" fill="#fbc3a9" stroke="#fbc3a9" stroke-width="1.51"/><path d="M372,202L411,383L581,309Z" fill="#f7b191" stroke="#f7b191" stroke-width="1.51"/><path d="M421,-30L372,202L576,74Z" fill="#e7866a" stroke="#e7866a" stroke-width="1.51"/><path d="M548,983L406,1085L549,1099Z" fill="#ac9aa6" stroke="#ac9aa6" stroke-width="1.51"/><path d="M130,-195L211,-140L435,-151Z" fill="#b7423d" stroke="#b7423d" stroke-width="1.51"/><path d="M411,383L465,535L564,417Z" fill="#fac7af" stroke="#fac7af" stroke-width="1.51"/><path d="M326,157L372,202L421,-30Z" fill="#e58064" stroke="#e58064" stroke-width="1.51"/><path d="M416,833L342,931L548,983Z" fill="#c1a9a8" stroke="#c1a9a8" stroke-width="1.51"/><path d="M406,1085L465,1205L549,1099Z" fill="#a68c9d" stroke="#a68c9d" stroke-width="1.51"/><path d="M342,931L406,1085L548,983Z" fill="#b19ba1" stroke="#b19ba1" stroke-width="1.51"/><path d="M435,-151L492,-100L540,-128Z" fill="#ce6656" stroke="#ce6656" stroke-width="1.51"/><path d="M435,-151L421,-30L492,-100Z" fill="#d46553" stroke="#d46553" stroke-width="1.51"/><path d="M264,773L416,833L422,652Z" fill="#dcb3aa" stroke="#dcb3aa" stroke-width="1.51"/><path d="M333,575L422,652L465,535Z" fill="#f2c3b3" stroke="#f2c3b3" stroke-width="1.51"/><path d="M411,383L333,575L465,535Z" fill="#f7c1ae" stroke="#f7c1ae" stroke-width="1.51"/><path d="M406,1085L361,1259L465,1205Z" fill="#a07c91" stroke="#a07c91" stroke-width="1.51"/><path d="M221,482L333,575L411,383Z" fill="#f3b5a2" stroke="#f3b5a2" stroke-width="1.51"/><path d="M372,202L233,341L411,383Z" fill="#f1a386" stroke="#f1a386" stroke-width="1.51"/><path d="M222,-66L326,157L421,-30Z" fill="#d86753" stroke="#d86753" stroke-width="1.51"/><path d="M222,-66L421,-30L435,-151Z" fill="#d05a4b" stroke="#d05a4b" stroke-width="1.51"/><path d="M211,-140L222,-66L435,-151Z" fill="#c44a41" stroke="#c44a41" stroke-width="1.51"/><path d="M222,-66L196,107L326,157Z" fill="#d96550" stroke="#d96550" stroke-width="1.51"/><path d="M229,740L264,773L333,575Z" fill="#e1aba1" stroke="#e1aba1" stroke-width="1.51"/><path d="M249,1075L361,1259L406,1085Z" fill="#a17a8d" stroke="#a17a8d" stroke-width="1.51"/><path d="M342,931L249,1075L406,1085Z" fill="#aa8a93" stroke="#aa8a93" stroke-width="1.51"/><path d="M333,575L264,773L422,652Z" fill="#e7b6aa" stroke="#e7b6aa" stroke-width="1.51"/><path d="M249,1075L256,1254L361,1259Z" fill="#996b80" stroke="#996b80" stroke-width="1.51"/><path d="M233,341L221,482L411,383Z" fill="#f1aa92" stroke="#f1aa92" stroke-width="1.51"/><path d="M264,773L342,931L416,833Z" fill="#cba6a2" stroke="#cba6a2" stroke-width="1.51"/><path d="M204,1022L249,1075L342,931Z" fill="#aa848d" stroke="#aa848d" stroke-width="1.51"/><path d="M326,157L198,274L372,202Z" fill="#e98c6e" stroke="#e98c6e" stroke-width="1.51"/><path d="M198,274L233,341L372,202Z" fill="#eb9277" stroke="#eb9277" stroke-width="1.51"/><path d="M264,773L148,836L342,931Z" fill="#c79a97" stroke="#c79a97" stroke-width="1.51"/><path d="M148,836L204,1022L342,931Z" fill="#b78b8f" stroke="#b78b8f" stroke-width="1.51"/><path d="M221,482L108,522L229,740Z" fill="#e8a69b" stroke="#e8a69b" stroke-width="1.51"/><path d="M221,482L229,740L333,575Z" fill="#eaafa2" stroke="#eaafa2" stroke-width="1.51"/><path d="M196,107L198,274L326,157Z" fill="#e37d62" stroke="#e37d62" stroke-width="1.51"/><path d="M148,836L88,921L204,1022Z" fill="#b48388" stroke="#b48388" stroke-width="1.51"/><path d="M108,522L72,693L229,740Z" fill="#de9d95" stroke="#de9d95" stroke-width="1.51"/><path d="M249,1075L88,1115L256,1254Z" fill="#9a677d" stroke="#9a677d" stroke-width="1.51"/><path d="M229,740L148,836L264,773Z" fill="#d09b97" stroke="#d09b97" stroke-width="1.51"/><path d="M57,59L196,107L222,-66Z" fill="#cf5345" stroke="#cf5345" stroke-width="1.51"/><path d="M88,1115L66,1321L256,1254Z" fill="#8c526b" stroke="#8c526b" stroke-width="1.51"/><path d="M48,-12L57,59L222,-66Z" fill="#c7453d" stroke="#c7453d" stroke-width="1.51"/><path d="M44,377L221,482L233,341Z" fill="#ea9a86" stroke="#ea9a86" stroke-width="1.51"/><path d="M204,1022L88,1115L249,1075Z" fill="#a07180" stroke="#a07180" stroke-width="1.51"/><path d="M44,377L108,522L221,482Z" fill="#e89a8b" stroke="#e89a8b" stroke-width="1.51"/><path d="M198,274L44,377L233,341Z" fill="#e78f78" stroke="#e78f78" stroke-width="1.51"/><path d="M196,107L39,275L198,274Z" fill="#e17a61" stroke="#e17a61" stroke-width="1.51"/><path d="M72,693L148,836L229,740Z" fill="#d19793" stroke="#d19793" stroke-width="1.51"/><path d="M130,-195L48,-12L211,-140Z" fill="#b93335" stroke="#b93335" stroke-width="1.51"/><path d="M211,-140L48,-12L222,-66Z" fill="#c33e3a" stroke="#c33e3a" stroke-width="1.51"/><path d="M57,59L-11,206L196,107Z" fill="#d25e4d" stroke="#d25e4d" stroke-width="1.51"/><path d="M-11,206L39,275L196,107Z" fill="#da6d57" stroke="#da6d57" stroke-width="1.51"/><path d="M39,275L44,377L198,274Z" fill="#e2846f" stroke="#e2846f" stroke-width="1.51"/><path d="M88,921L88,1115L204,1022Z" fill="#a27380" stroke="#a27380" stroke-width="1.51"/><path d="M0,-86L48,-12L130,-195Z" fill="#b92930" stroke="#b92930" stroke-width="1.51"/><path d="M88,921L-37,1016L88,1115Z" fill="#9e6b7a" stroke="#9e6b7a" stroke-width="1.51"/><path d="M-38,828L88,921L148,836Z" fill="#bb8487" stroke="#bb8487" stroke-width="1.51"/><path d="M72,693L-38,828L148,836Z" fill="#c78b8a" stroke="#c78b8a" stroke-width="1.51"/><path d="M-88,1301L66,1321L88,1115Z" fill="#83435e" stroke="#83435e" stroke-width="1.51"/><path d="M-38,502L72,693L108,522Z" fill="#e19790" stroke="#e19790" stroke-width="1.51"/><path d="M-82,-239L0,-86L130,-195Z" fill="#a31b2b" stroke="#a31b2b" stroke-width="1.51"/><path d="M-31,410L-38,502L44,377Z" fill="#e0897c" stroke="#e0897c" stroke-width="1.51"/><path d="M-47,1081L-88,1301L88,1115Z" fill="#8d4d6b" stroke="#8d4d6b" stroke-width="1.51"/><path d="M-37,1016L-47,1081L88,1115Z" fill="#965e73" stroke="#965e73" stroke-width="1.51"/><path d="M44,377L-38,502L108,522Z" fill="#e39185" stroke="#e39185" stroke-width="1.51"/><path d="M-68,100L-11,206L57,59Z" fill="#cc5246" stroke="#cc5246" stroke-width="1.51"/><path d="M-38,502L-111,709L72,693Z" fill="#d68c88" stroke="#d68c88" stroke-width="1.51"/><path d="M-38,828L-37,1016L88,921Z" fill="#ad747d" stroke="#ad747d" stroke-width="1.51"/><path d="M-111,709L-38,828L72,693Z" fill="#c98585" stroke="#c98585" stroke-width="1.51"/><path d="M-160,1175L-88,1301L-47,1081Z" fill="#7e4566" stroke="#7e4566" stroke-width="1.51"/><path d="M-159,573L-111,709L-38,502Z" fill="#cd8887" stroke="#cd8887" stroke-width="1.51"/><path d="M39,275L-31,410L44,377Z" fill="#e08372" stroke="#e08372" stroke-width="1.51"/><path d="M48,-12L-68,100L57,59Z" fill="#c6443d" stroke="#c6443d" stroke-width="1.51"/><path d="M0,-86L-68,100L48,-12Z" fill="#bf3737" stroke="#bf3737" stroke-width="1.51"/><path d="M-11,206L-31,410L39,275Z" fill="#dc7765" stroke="#dc7765" stroke-width="1.51"/><path d="M-38,828L-235,951L-37,1016Z" fill="#9c6b77" stroke="#9c6b77" stroke-width="1.51"/><path d="M-185,213L-244,351L-31,410Z" fill="#c57065" stroke="#c57065" stroke-width="1.51"/><path d="M-185,213L-31,410L-11,206Z" fill="#d06d5e" stroke="#d06d5e" stroke-width="1.51"/><path d="M-82,-239L-221,-192L0,-86Z" fill="#940e27" stroke="#940e27" stroke-width="1.51"/><path d="M-221,-192L-248,-70L0,-86Z" fill="#991028" stroke="#991028" stroke-width="1.51"/><path d="M-248,-70L-68,100L0,-86Z" fill="#ae2b31" stroke="#ae2b31" stroke-width="1.51"/><path d="M-68,100L-185,213L-11,206Z" fill="#c6584b" stroke="#c6584b" stroke-width="1.51"/><path d="M-248,-70L-232,108L-68,100Z" fill="#aa3536" stroke="#aa3536" stroke-width="1.51"/><path d="M-111,709L-166,729L-38,828Z" fill="#b97e82" stroke="#b97e82" stroke-width="1.51"/><path d="M-159,573L-38,502L-31,410Z" fill="#d68982" stroke="#d68982" stroke-width="1.51"/><path d="M-244,351L-159,573L-31,410Z" fill="#ca8079" stroke="#ca8079" stroke-width="1.51"/><path d="M-247,797L-235,951L-38,828Z" fill="#9d707a" stroke="#9d707a" stroke-width="1.51"/><path d="M-235,951L-47,1081L-37,1016Z" fill="#8d5e71" stroke="#8d5e71" stroke-width="1.51"/><path d="M-166,729L-247,797L-38,828Z" fill="#ac787f" stroke="#ac787f" stroke-width="1.51"/><path d="M-235,951L-160,1175L-47,1081Z" fill="#81536c" stroke="#81536c" stroke-width="1.51"/><path d="M-232,108L-185,213L-68,100Z" fill="#b74d44" stroke="#b74d44" stroke-width="1.51"/><path d="M-160,1175L-235,1305L-88,1301Z" fill="#693453" stroke="#693453" stroke-width="1.51"/><path d="M-159,573L-166,729L-111,709Z" fill="#be8284" stroke="#be8284" stroke-width="1.51"/><path d="M-235,951L-235,1305L-160,1175Z" fill="#704465" stroke="#704465" stroke-width="1.51"/><path d="M-247,797L-166,729L-159,573Z" fill="#b37d82" stroke="#b37d82" stroke-width="1.51"/><path d="M-244,351L-247,797L-159,573Z" fill="#bb8184" stroke="#bb8184" stroke-width="1.51"/><path d="M-232,108L-244,351L-185,213Z" fill="#b55b50" stroke="#b55b50" stroke-width="1.51"/><path d="M-247,797L-235,1305L-235,951Z" fill="#76556d" stroke="#76556d" stroke-width="1.51"/><path d="M-248,-70L-244,351L-232,108Z" fill="#a94541" stroke="#a94541" stroke-width="1.51"/></svg>