<svg xmlns="http://www.w3.org/2000/svg" width="1920" height="1080"><path d="M673,1308L66,1321L827,1318Z" fill="#846455" stroke="#846455" stroke-width="1.51"/><path d="M784,-241L1155,-198L1262,-197Z" fill="#be8182" stroke="#be8182" stroke-width="1.51"/><path d="M1262,-197L1493,-187L1820,-201Z" fill="#a06363" stroke="#a06363" stroke-width="1.51"/><path d="M784,-241L1262,-197L1820,-201Z" fill="#af7474" stroke="#af7474" stroke-width="1.51"/><path d="M1393,1281L1221,1285L1827,1320Z" fill="#696969" stroke="#696969" stroke-width="1.51"/><path d="M1221,1285L827,1318L1827,1320Z" fill="#757575" stroke="#757575" stroke-width="1.51"/><path d="M1540,1271L1393,1281L1827,1320Z" fill="#606060" stroke="#606060" stroke-width="1.51"/><path d="M1984,1117L2076,1158L2079,938Z" fill="#545454" stroke="#545454" stroke-width="1.51"/><path d="M2012,279L2146,391L2159,224Z" fill="#8c7164" stroke="#8c7164" stroke-width="1.51"/><path d="M2024,667L2144,678L2162,483Z" fill="#868686" stroke="#868686" stroke-width="1.51"/><path d="M1979,594L2024,667L2162,483Z" fill="#909090" stroke="#909090" stroke-width="1.51"/><path d="M2159,224L2146,391L2162,483Z" fill="#87756b" stroke="#87756b" stroke-width="1.51"/><path d="M2162,137L2159,224L2162,483Z" fill="#85675a" stroke="#85675a" stroke-width="1.51"/><path d="M1976,88L2162,137L2166,-34Z" fill="#7f483d" stroke="#7f483d" stroke-width="1.51"/><path d="M2006,-81L1976,88L2166,-34Z" fill="#7f423a" stroke="#7f423a" stroke-width="1.51"/><path d="M2076,1158L2108,1305L2176,771Z" fill="#4b4b4b" stroke="#4b4b4b" stroke-width="1.51"/><path d="M2079,938L2076,1158L2176,771Z" fill="#5f5f5f" stroke="#5f5f5f" stroke-width="1.51"/><path d="M1964,774L2079,938L2176,771Z" fill="#757575" stroke="#757575" stroke-width="1.51"/><path d="M2144,678L2024,667L2176,771Z" fill="#7e7e7e" stroke="#7e7e7e" stroke-width="1.51"/><path d="M2024,667L1964,774L2176,771Z" fill="#828282" stroke="#828282" stroke-width="1.51"/><path d="M2162,483L2144,678L2176,771Z" fill="#7e7e7e" stroke="#7e7e7e" stroke-width="1.51"/><path d="M2166,-34L2162,137L2176,771Z" fill="#84695b" stroke="#84695b" stroke-width="1.51"/><path d="M2162,137L2162,483L2176,771Z" fill="#867e7a" stroke="#867e7a" stroke-width="1.51"/><path d="M2012,279L2159,224L2162,137Z" fill="#896353" stroke="#896353" stroke-width="1.51"/><path d="M1976,88L2012,279L2162,137Z" fill="#8d6152" stroke="#8d6152" stroke-width="1.51"/><path d="M2146,391L1958,430L2162,483Z" fill="#8f847f" stroke="#8f847f" stroke-width="1.51"/><path d="M2060,-151L2006,-81L2166,-34Z" fill="#74322f" stroke="#74322f" stroke-width="1.51"/><path d="M1958,430L1979,594L2162,483Z" fill="#969290" stroke="#969290" stroke-width="1.51"/><path d="M1932,1247L1827,1320L2108,1305Z" fill="#393939" stroke="#393939" stroke-width="1.51"/><path d="M2012,279L1958,430L2146,391Z" fill="#95837a" stroke="#95837a" stroke-width="1.51"/><path d="M1958,968L1984,1117L2079,938Z" fill="#646464" stroke="#646464" stroke-width="1.51"/><path d="M2076,1158L1932,1247L2108,1305Z" fill="#393939" stroke="#393939" stroke-width="1.51"/><path d="M1984,1117L1932,1247L2076,1158Z" fill="#484848" stroke="#484848" stroke-width="1.51"/><path d="M1964,774L1958,968L2079,938Z" fill="#767676" stroke="#767676" stroke-width="1.51"/><path d="M1965,-176L2006,-81L2060,-151Z" fill="#733533" stroke="#733533" stroke-width="1.51"/><path d="M1130,1278L827,1318L1221,1285Z" fill="#858585" stroke="#858585" stroke-width="1.51"/><path d="M1858,827L1958,968L1964,774Z" fill="#848484" stroke="#848484" stroke-width="1.51"/><path d="M1847,5L1976,88L2006,-81Z" fill="#8e5047" stroke="#8e5047" stroke-width="1.51"/><path d="M1976,88L1803,262L2012,279Z" fill="#a07867" stroke="#a07867" stroke-width="1.51"/><path d="M1979,594L1964,774L2024,667Z" fill="#909090" stroke="#909090" stroke-width="1.51"/><path d="M1802,108L1803,262L1976,88Z" fill="#a57566" stroke="#a57566" stroke-width="1.51"/><path d="M1958,430L1828,528L1979,594Z" fill="#a4a2a0" stroke="#a4a2a0" stroke-width="1.51"/><path d="M1803,262L1958,430L2012,279Z" fill="#a38b7f" stroke="#a38b7f" stroke-width="1.51"/><path d="M1775,722L1964,774L1979,594Z" fill="#999999" stroke="#999999" stroke-width="1.51"/><path d="M1958,968L1818,1026L1984,1117Z" fill="#696969" stroke="#696969" stroke-width="1.51"/><path d="M1965,-176L1847,5L2006,-81Z" fill="#86423e" stroke="#86423e" stroke-width="1.51"/><path d="M1803,262L1774,366L1958,430Z" fill="#ae998e" stroke="#ae998e" stroke-width="1.51"/><path d="M1820,-201L1847,5L1965,-176Z" fill="#874542" stroke="#874542" stroke-width="1.51"/><path d="M1828,528L1775,722L1979,594Z" fill="#a5a5a5" stroke="#a5a5a5" stroke-width="1.51"/><path d="M1822,1173L1932,1247L1984,1117Z" fill="#505050" stroke="#505050" stroke-width="1.51"/><path d="M1818,1026L1822,1173L1984,1117Z" fill="#626262" stroke="#626262" stroke-width="1.51"/><path d="M1847,5L1802,108L1976,88Z" fill="#9c6256" stroke="#9c6256" stroke-width="1.51"/><path d="M1775,722L1858,827L1964,774Z" fill="#959595" stroke="#959595" stroke-width="1.51"/><path d="M1858,827L1818,1026L1958,968Z" fill="#7d7d7d" stroke="#7d7d7d" stroke-width="1.51"/><path d="M1774,366L1828,528L1958,430Z" fill="#ada39d" stroke="#ada39d" stroke-width="1.51"/><path d="M-82,-239L130,-195L784,-241Z" fill="#a93f3c" stroke="#a93f3c" stroke-width="1.51"/><path d="M1731,921L1818,1026L1858,827Z" fill="#898989" stroke="#898989" stroke-width="1.51"/><path d="M1822,1173L1827,1320L1932,1247Z" fill="#4b4b4b" stroke="#4b4b4b" stroke-width="1.51"/><path d="M1493,-187L1631,-139L1820,-201Z" fill="#975958" stroke="#975958" stroke-width="1.51"/><path d="M1818,1026L1705,1064L1822,1173Z" fill="#707070" stroke="#707070" stroke-width="1.51"/><path d="M1822,1173L1713,1232L1827,1320Z" fill="#545454" stroke="#545454" stroke-width="1.51"/><path d="M1744,516L1775,722L1828,528Z" fill="#b2b2b2" stroke="#b2b2b2" stroke-width="1.51"/><path d="M1774,366L1744,516L1828,528Z" fill="#b7afab" stroke="#b7afab" stroke-width="1.51"/><path d="M1820,-201L1631,-139L1847,5Z" fill="#98534f" stroke="#98534f" stroke-width="1.51"/><path d="M1631,-139L1654,11L1847,5Z" fill="#a8645d" stroke="#a8645d" stroke-width="1.51"/><path d="M1775,722L1731,921L1858,827Z" fill="#999999" stroke="#999999" stroke-width="1.51"/><path d="M1705,727L1731,921L1775,722Z" fill="#a3a3a3" stroke="#a3a3a3" stroke-width="1.51"/><path d="M1713,1232L1540,1271L1827,1320Z" fill="#585858" stroke="#585858" stroke-width="1.51"/><path d="M1705,101L1802,108L1847,5Z" fill="#a96e61" stroke="#a96e61" stroke-width="1.51"/><path d="M1654,11L1705,101L1847,5Z" fill="#ad6e63" stroke="#ad6e63" stroke-width="1.51"/><path d="M1744,516L1705,727L1775,722Z" fill="#b1b1b1" stroke="#b1b1b1" stroke-width="1.51"/><path d="M1802,108L1705,101L1803,262Z" fill="#b18171" stroke="#b18171" stroke-width="1.51"/><path d="M1731,921L1705,1064L1818,1026Z" fill="#838383" stroke="#838383" stroke-width="1.51"/><path d="M1705,1064L1713,1232L1822,1173Z" fill="#686868" stroke="#686868" stroke-width="1.51"/><path d="M1705,727L1628,777L1731,921Z" fill="#a7a7a7" stroke="#a7a7a7" stroke-width="1.51"/><path d="M1630,308L1774,366L1803,262Z" fill="#bba093" stroke="#bba093" stroke-width="1.51"/><path d="M1705,101L1630,308L1803,262Z" fill="#bd9584" stroke="#bd9584" stroke-width="1.51"/><path d="M1584,149L1630,308L1705,101Z" fill="#c39585" stroke="#c39585" stroke-width="1.51"/><path d="M1544,626L1705,727L1744,516Z" fill="#bdbdbd" stroke="#bdbdbd" stroke-width="1.51"/><path d="M1631,337L1744,516L1774,366Z" fill="#bfb1a9" stroke="#bfb1a9" stroke-width="1.51"/><path d="M1630,308L1631,337L1774,366Z" fill="#c3ab9f" stroke="#c3ab9f" stroke-width="1.51"/><path d="M1705,1064L1575,1089L1713,1232Z" fill="#767676" stroke="#767676" stroke-width="1.51"/><path d="M1631,337L1543,419L1744,516Z" fill="#c7bbb4" stroke="#c7bbb4" stroke-width="1.51"/><path d="M1543,419L1522,502L1744,516Z" fill="#ccc5c1" stroke="#ccc5c1" stroke-width="1.51"/><path d="M1522,502L1544,626L1744,516Z" fill="#cbcbcb" stroke="#cbcbcb" stroke-width="1.51"/><path d="M1631,-139L1582,-90L1654,11Z" fill="#b06861" stroke="#b06861" stroke-width="1.51"/><path d="M1503,962L1575,1089L1705,1064Z" fill="#8d8d8d" stroke="#8d8d8d" stroke-width="1.51"/><path d="M1503,962L1705,1064L1731,921Z" fill="#929292" stroke="#929292" stroke-width="1.51"/><path d="M1526,874L1503,962L1731,921Z" fill="#a2a2a2" stroke="#a2a2a2" stroke-width="1.51"/><path d="M1628,777L1526,874L1731,921Z" fill="#a7a7a7" stroke="#a7a7a7" stroke-width="1.51"/><path d="M1544,626L1628,777L1705,727Z" fill="#b9b9b9" stroke="#b9b9b9" stroke-width="1.51"/><path d="M1575,1089L1540,1271L1713,1232Z" fill="#6e6e6e" stroke="#6e6e6e" stroke-width="1.51"/><path d="M1654,11L1584,149L1705,101Z" fill="#bb8073" stroke="#bb8073" stroke-width="1.51"/><path d="M1584,149L1519,302L1630,308Z" fill="#cda898" stroke="#cda898" stroke-width="1.51"/><path d="M1582,-90L1584,149L1654,11Z" fill="#bb796f" stroke="#bb796f" stroke-width="1.51"/><path d="M1582,-90L1422,-87L1584,149Z" fill="#c07c72" stroke="#c07c72" stroke-width="1.51"/><path d="M1544,626L1419,771L1628,777Z" fill="#c2c2c2" stroke="#c2c2c2" stroke-width="1.51"/><path d="M1630,308L1519,302L1631,337Z" fill="#ccb1a4" stroke="#ccb1a4" stroke-width="1.51"/><path d="M1519,302L1543,419L1631,337Z" fill="#d0baaf" stroke="#d0baaf" stroke-width="1.51"/><path d="M1493,-187L1582,-90L1631,-139Z" fill="#a96562" stroke="#a96562" stroke-width="1.51"/><path d="M1422,-87L1348,94L1584,149Z" fill="#ce8d81" stroke="#ce8d81" stroke-width="1.51"/><path d="M1419,771L1526,874L1628,777Z" fill="#b8b8b8" stroke="#b8b8b8" stroke-width="1.51"/><path d="M1419,1157L1540,1271L1575,1089Z" fill="#7d7d7d" stroke="#7d7d7d" stroke-width="1.51"/><path d="M1380,261L1519,302L1584,149Z" fill="#d5ae9d" stroke="#d5ae9d" stroke-width="1.51"/><path d="M1348,94L1380,261L1584,149Z" fill="#d8a696" stroke="#d8a696" stroke-width="1.51"/><path d="M1493,-187L1422,-87L1582,-90Z" fill="#b56d69" stroke="#b56d69" stroke-width="1.51"/><path d="M1503,962L1419,1157L1575,1089Z" fill="#919191" stroke="#919191" stroke-width="1.51"/><path d="M1419,1157L1393,1281L1540,1271Z" fill="#767676" stroke="#767676" stroke-width="1.51"/><path d="M1519,302L1379,446L1543,419Z" fill="#d9c8bf" stroke="#d9c8bf" stroke-width="1.51"/><path d="M1442,503L1522,502L1543,419Z" fill="#d7d0cc" stroke="#d7d0cc" stroke-width="1.51"/><path d="M1442,503L1345,702L1544,626Z" fill="#d6d6d6" stroke="#d6d6d6" stroke-width="1.51"/><path d="M1345,702L1419,771L1544,626Z" fill="#cecece" stroke="#cecece" stroke-width="1.51"/><path d="M1522,502L1442,503L1544,626Z" fill="#d6d6d6" stroke="#d6d6d6" stroke-width="1.51"/><path d="M1379,446L1442,503L1543,419Z" fill="#dcd3cd" stroke="#dcd3cd" stroke-width="1.51"/><path d="M1351,941L1419,1157L1503,962Z" fill="#a2a2a2" stroke="#a2a2a2" stroke-width="1.51"/><path d="M1380,261L1379,446L1519,302Z" fill="#dec5b9" stroke="#dec5b9" stroke-width="1.51"/><path d="M1351,941L1503,962L1526,874Z" fill="#aeaeae" stroke="#aeaeae" stroke-width="1.51"/><path d="M1419,771L1351,941L1526,874Z" fill="#bbbbbb" stroke="#bbbbbb" stroke-width="1.51"/><path d="M1262,-197L1355,-136L1493,-187Z" fill="#b37271" stroke="#b37271" stroke-width="1.51"/><path d="M1309,559L1345,702L1442,503Z" fill="#dedede" stroke="#dedede" stroke-width="1.51"/><path d="M1355,-136L1422,-87L1493,-187Z" fill="#b9726f" stroke="#b9726f" stroke-width="1.51"/><path d="M1309,559L1295,651L1345,702Z" fill="#dddddd" stroke="#dddddd" stroke-width="1.51"/><path d="M1348,94L1291,225L1380,261Z" fill="#e1b2a1" stroke="#e1b2a1" stroke-width="1.51"/><path d="M1351,941L1263,1063L1419,1157Z" fill="#a2a2a2" stroke="#a2a2a2" stroke-width="1.51"/><path d="M1301,840L1351,941L1419,771Z" fill="#c2c2c2" stroke="#c2c2c2" stroke-width="1.51"/><path d="M1242,-24L1348,94L1422,-87Z" fill="#d28c82" stroke="#d28c82" stroke-width="1.51"/><path d="M1379,446L1309,559L1442,503Z" fill="#e2dedc" stroke="#e2dedc" stroke-width="1.51"/><path d="M1218,442L1379,446L1380,261Z" fill="#e5d5cb" stroke="#e5d5cb" stroke-width="1.51"/><path d="M1221,1285L1393,1281L1419,1157Z" fill="#7d7d7d" stroke="#7d7d7d" stroke-width="1.51"/><path d="M1355,-136L1242,-24L1422,-87Z" fill="#cb7f78" stroke="#cb7f78" stroke-width="1.51"/><path d="M1263,1063L1221,1285L1419,1157Z" fill="#8e8e8e" stroke="#8e8e8e" stroke-width="1.51"/><path d="M1345,702L1301,840L1419,771Z" fill="#cccccc" stroke="#cccccc" stroke-width="1.51"/><path d="M1291,225L1218,442L1380,261Z" fill="#e8cbbd" stroke="#e8cbbd" stroke-width="1.51"/><path d="M1218,442L1309,559L1379,446Z" fill="#e8e1de" stroke="#e8e1de" stroke-width="1.51"/><path d="M784,-241L953,-171L1155,-198Z" fill="#c78888" stroke="#c78888" stroke-width="1.51"/><path d="M1163,245L1218,442L1291,225Z" fill="#edcfc1" stroke="#edcfc1" stroke-width="1.51"/><path d="M1154,793L1301,840L1345,702Z" fill="#d2d2d2" stroke="#d2d2d2" stroke-width="1.51"/><path d="M1205,111L1291,225L1348,94Z" fill="#e2ad9d" stroke="#e2ad9d" stroke-width="1.51"/><path d="M1242,-24L1205,111L1348,94Z" fill="#de9d90" stroke="#de9d90" stroke-width="1.51"/><path d="M1192,1016L1263,1063L1351,941Z" fill="#b0b0b0" stroke="#b0b0b0" stroke-width="1.51"/><path d="M1262,-197L1242,-24L1355,-136Z" fill="#c87e79" stroke="#c87e79" stroke-width="1.51"/><path d="M1295,651L1154,793L1345,702Z" fill="#d9d9d9" stroke="#d9d9d9" stroke-width="1.51"/><path d="M1301,840L1192,1016L1351,941Z" fill="#bbbbbb" stroke="#bbbbbb" stroke-width="1.51"/><path d="M1062,1157L1221,1285L1263,1063Z" fill="#969696" stroke="#969696" stroke-width="1.51"/><path d="M1061,483L1098,718L1295,651Z" fill="#ebebeb" stroke="#ebebeb" stroke-width="1.51"/><path d="M1154,793L1192,1016L1301,840Z" fill="#c8c8c8" stroke="#c8c8c8" stroke-width="1.51"/><path d="M1061,483L1295,651L1309,559Z" fill="#ececec" stroke="#ececec" stroke-width="1.51"/><path d="M1218,442L1061,483L1309,559Z" fill="#f0ebe8" stroke="#f0ebe8" stroke-width="1.51"/><path d="M1163,245L1120,401L1218,442Z" fill="#f2ddd2" stroke="#f2ddd2" stroke-width="1.51"/><path d="M1062,1157L1130,1278L1221,1285Z" fill="#8b8b8b" stroke="#8b8b8b" stroke-width="1.51"/><path d="M1155,-198L1114,-81L1242,-24Z" fill="#d68882" stroke="#d68882" stroke-width="1.51"/><path d="M1155,-198L1242,-24L1262,-197Z" fill="#c8807d" stroke="#c8807d" stroke-width="1.51"/><path d="M1098,718L1154,793L1295,651Z" fill="#dfdfdf" stroke="#dfdfdf" stroke-width="1.51"/><path d="M1205,111L1163,245L1291,225Z" fill="#ebbcab" stroke="#ebbcab" stroke-width="1.51"/><path d="M1009,1251L827,1318L1130,1278Z" fill="#8c8c8c" stroke="#8c8c8c" stroke-width="1.51"/><path d="M1154,793L1069,938L1192,1016Z" fill="#c8c8c8" stroke="#c8c8c8" stroke-width="1.51"/><path d="M1192,1016L1062,1157L1263,1063Z" fill="#a8a8a8" stroke="#a8a8a8" stroke-width="1.51"/><path d="M130,-195L435,-151L784,-241Z" fill="#bb5b4f" stroke="#bb5b4f" stroke-width="1.51"/><path d="M1114,-81L1205,111L1242,-24Z" fill="#de988d" stroke="#de988d" stroke-width="1.51"/><path d="M361,1259L66,1321L673,1308Z" fill="#825648" stroke="#825648" stroke-width="1.51"/><path d="M1072,130L1163,245L1205,111Z" fill="#eebaa9" stroke="#eebaa9" stroke-width="1.51"/><path d="M1114,-81L1072,130L1205,111Z" fill="#e6a497" stroke="#e6a497" stroke-width="1.51"/><path d="M1120,401L1061,483L1218,442Z" fill="#f4e9e3" stroke="#f4e9e3" stroke-width="1.51"/><path d="M1069,938L1062,1157L1192,1016Z" fill="#b4b4b4" stroke="#b4b4b4" stroke-width="1.51"/><path d="M1061,483L1011,709L1098,718Z" fill="#efefef" stroke="#efefef" stroke-width="1.51"/><path d="M960,223L961,382L1120,401Z" fill="#fbe2d5" stroke="#fbe2d5" stroke-width="1.51"/><path d="M960,223L1120,401L1163,245Z" fill="#f7d6c7" stroke="#f7d6c7" stroke-width="1.51"/><path d="M1072,130L960,223L1163,245Z" fill="#f5c7b5" stroke="#f5c7b5" stroke-width="1.51"/><path d="M971,509L1011,709L1061,483Z" fill="#f9f9f9" stroke="#f9f9f9" stroke-width="1.51"/><path d="M1011,709L933,816L1098,718Z" fill="#e6e6e6" stroke="#e6e6e6" stroke-width="1.51"/><path d="M913,5L1072,130L1114,-81Z" fill="#eaa498" stroke="#eaa498" stroke-width="1.51"/><path d="M1098,718L933,816L1154,793Z" fill="#e0e0e0" stroke="#e0e0e0" stroke-width="1.51"/><path d="M933,816L1069,938L1154,793Z" fill="#d7d7d7" stroke="#d7d7d7" stroke-width="1.51"/><path d="M953,-171L1114,-81L1155,-198Z" fill="#cf8885" stroke="#cf8885" stroke-width="1.51"/><path d="M903,1020L1062,1157L1069,938Z" fill="#bababa" stroke="#bababa" stroke-width="1.51"/><path d="M993,152L960,223L1072,130Z" fill="#f7c4b3" stroke="#f7c4b3" stroke-width="1.51"/><path d="M1062,1157L1009,1251L1130,1278Z" fill="#919191" stroke="#919191" stroke-width="1.51"/><path d="M961,382L1061,483L1120,401Z" fill="#f9ece4" stroke="#f9ece4" stroke-width="1.51"/><path d="M903,1020L935,1147L1062,1157Z" fill="#afafaf" stroke="#afafaf" stroke-width="1.51"/><path d="M953,-171L913,5L1114,-81Z" fill="#e3958e" stroke="#e3958e" stroke-width="1.51"/><path d="M913,5L993,152L1072,130Z" fill="#f3b5a6" stroke="#f3b5a6" stroke-width="1.51"/><path d="M961,382L971,509L1061,483Z" fill="#fdf3ee" stroke="#fdf3ee" stroke-width="1.51"/><path d="M933,816L903,1020L1069,938Z" fill="#d1d1d1" stroke="#d1d1d1" stroke-width="1.51"/><path d="M935,1147L1009,1251L1062,1157Z" fill="#9e9e9e" stroke="#9e9e9e" stroke-width="1.51"/><path d="M831,977L903,1020L933,816Z" fill="#cfcac7" stroke="#cfcac7" stroke-width="1.51"/><path d="M762,645L873,770L1011,709Z" fill="#eee9e5" stroke="#eee9e5" stroke-width="1.51"/><path d="M836,510L762,645L1011,709Z" fill="#f7f1ed" stroke="#f7f1ed" stroke-width="1.51"/><path d="M873,770L933,816L1011,709Z" fill="#e7e6e5" stroke="#e7e6e5" stroke-width="1.51"/><path d="M971,509L836,510L1011,709Z" fill="#fcfaf9" stroke="#fcfaf9" stroke-width="1.51"/><path d="M960,223L833,308L961,382Z" fill="#feddcd" stroke="#feddcd" stroke-width="1.51"/><path d="M961,382L874,446L971,509Z" fill="#fff2eb" stroke="#fff2eb" stroke-width="1.51"/><path d="M935,1147L827,1318L1009,1251Z" fill="#969392" stroke="#969392" stroke-width="1.51"/><path d="M784,118L960,223L993,152Z" fill="#f9c2b0" stroke="#f9c2b0" stroke-width="1.51"/><path d="M913,5L784,118L993,152Z" fill="#f3b2a1" stroke="#f3b2a1" stroke-width="1.51"/><path d="M781,-33L913,5L953,-171Z" fill="#e59489" stroke="#e59489" stroke-width="1.51"/><path d="M874,446L836,510L971,509Z" fill="#fff4ee" stroke="#fff4ee" stroke-width="1.51"/><path d="M784,118L833,308L960,223Z" fill="#fcc9b3" stroke="#fcc9b3" stroke-width="1.51"/><path d="M833,308L874,446L961,382Z" fill="#fee7da" stroke="#fee7da" stroke-width="1.51"/><path d="M903,1020L812,1114L935,1147Z" fill="#b2adaa" stroke="#b2adaa" stroke-width="1.51"/><path d="M812,1114L827,1318L935,1147Z" fill="#9f9894" stroke="#9f9894" stroke-width="1.51"/><path d="M784,-241L781,-33L953,-171Z" fill="#d4867e" stroke="#d4867e" stroke-width="1.51"/><path d="M873,770L831,977L933,816Z" fill="#ddd7d3" stroke="#ddd7d3" stroke-width="1.51"/><path d="M717,914L831,977L873,770Z" fill="#d7cdc6" stroke="#d7cdc6" stroke-width="1.51"/><path d="M781,-33L784,118L913,5Z" fill="#eda190" stroke="#eda190" stroke-width="1.51"/><path d="M831,977L812,1114L903,1020Z" fill="#beb6b1" stroke="#beb6b1" stroke-width="1.51"/><path d="M812,1114L673,1308L827,1318Z" fill="#948780" stroke="#948780" stroke-width="1.51"/><path d="M679,844L717,914L873,770Z" fill="#decfc8" stroke="#decfc8" stroke-width="1.51"/><path d="M614,359L836,510L874,446Z" fill="#fee6d8" stroke="#fee6d8" stroke-width="1.51"/><path d="M833,308L614,359L874,446Z" fill="#fedecb" stroke="#fedecb" stroke-width="1.51"/><path d="M762,645L679,844L873,770Z" fill="#e9dbd4" stroke="#e9dbd4" stroke-width="1.51"/><path d="M435,-151L540,-128L784,-241Z" fill="#c66d60" stroke="#c66d60" stroke-width="1.51"/><path d="M657,-132L781,-33L784,-241Z" fill="#d58075" stroke="#d58075" stroke-width="1.51"/><path d="M663,153L656,283L784,118Z" fill="#f7b79c" stroke="#f7b79c" stroke-width="1.51"/><path d="M717,914L610,1113L812,1114Z" fill="#bbaaa1" stroke="#bbaaa1" stroke-width="1.51"/><path d="M610,1113L673,1308L812,1114Z" fill="#a18f86" stroke="#a18f86" stroke-width="1.51"/><path d="M717,914L812,1114L831,977Z" fill="#c4b8b1" stroke="#c4b8b1" stroke-width="1.51"/><path d="M656,283L614,359L833,308Z" fill="#fcceb7" stroke="#fcceb7" stroke-width="1.51"/><path d="M784,118L656,283L833,308Z" fill="#fbc5ac" stroke="#fbc5ac" stroke-width="1.51"/><path d="M614,359L717,567L836,510Z" fill="#fee6d9" stroke="#fee6d9" stroke-width="1.51"/><path d="M717,567L762,645L836,510Z" fill="#fbede6" stroke="#fbede6" stroke-width="1.51"/><path d="M781,-33L709,-25L784,118Z" fill="#eb9a87" stroke="#eb9a87" stroke-width="1.51"/><path d="M-88,1301L-235,1305L66,1321Z" fill="#612525" stroke="#612525" stroke-width="1.51"/><path d="M657,-132L709,-25L781,-33Z" fill="#e18978" stroke="#e18978" stroke-width="1.51"/><path d="M612,626L569,672L679,844Z" fill="#edd1c4" stroke="#edd1c4" stroke-width="1.51"/><path d="M614,359L564,417L717,567Z" fill="#fed9c7" stroke="#fed9c7" stroke-width="1.51"/><path d="M612,626L679,844L762,645Z" fill="#eedacf" stroke="#eedacf" stroke-width="1.51"/><path d="M540,-128L657,-132L784,-241Z" fill="#ca756a" stroke="#ca756a" stroke-width="1.51"/><path d="M709,-25L663,153L784,118Z" fill="#efa38c" stroke="#efa38c" stroke-width="1.51"/><path d="M576,74L663,153L709,-25Z" fill="#ec9980" stroke="#ec9980" stroke-width="1.51"/><path d="M548,983L610,1113L717,914Z" fill="#c3aa9d" stroke="#c3aa9d" stroke-width="1.51"/><path d="M717,567L612,626L762,645Z" fill="#f8e4d9" stroke="#f8e4d9" stroke-width="1.51"/><path d="M564,417L612,626L717,567Z" fill="#ffe3d6" stroke="#ffe3d6" stroke-width="1.51"/><path d="M679,844L581,863L717,914Z" fill="#d9c2b6" stroke="#d9c2b6" stroke-width="1.51"/><path d="M581,863L548,983L717,914Z" fill="#d1b6a9" stroke="#d1b6a9" stroke-width="1.51"/><path d="M569,672L581,863L679,844Z" fill="#e3c7ba" stroke="#e3c7ba" stroke-width="1.51"/><path d="M657,-132L540,-128L709,-25Z" fill="#dc7a6b" stroke="#dc7a6b" stroke-width="1.51"/><path d="M540,-128L576,74L709,-25Z" fill="#e1836f" stroke="#e1836f" stroke-width="1.51"/><path d="M256,1254L66,1321L361,1259Z" fill="#7f483d" stroke="#7f483d" stroke-width="1.51"/><path d="M564,417L465,535L612,626Z" fill="#fed9c8" stroke="#fed9c8" stroke-width="1.51"/><path d="M581,309L656,283L663,153Z" fill="#f9bb9f" stroke="#f9bb9f" stroke-width="1.51"/><path d="M465,1205L361,1259L673,1308Z" fill="#906d5d" stroke="#906d5d" stroke-width="1.51"/><path d="M610,1113L465,1205L673,1308Z" fill="#9a7e71" stroke="#9a7e71" stroke-width="1.51"/><path d="M540,-128L492,-100L576,74Z" fill="#dd7763" stroke="#dd7763" stroke-width="1.51"/><path d="M548,983L549,1099L610,1113Z" fill="#b7988a" stroke="#b7988a" stroke-width="1.51"/><path d="M581,309L614,359L656,283Z" fill="#fbc6ab" stroke="#fbc6ab" stroke-width="1.51"/><path d="M576,74L581,309L663,153Z" fill="#f4ac8e" stroke="#f4ac8e" stroke-width="1.51"/><path d="M492,-100L421,-30L576,74Z" fill="#df7861" stroke="#df7861" stroke-width="1.51"/><path d="M569,672L416,833L581,863Z" fill="#e3bead" stroke="#e3bead" stroke-width="1.51"/><path d="M576,74L372,202L581,309Z" fill="#f3a483" stroke="#f3a483" stroke-width="1.51"/><path d="M549,1099L465,1205L610,1113Z" fill="#a88778" stroke="#a88778" stroke-width="1.51"/><path d="M465,535L569,672L612,626Z" fill="#f7d4c4" stroke="#f7d4c4" stroke-width="1.51"/><path d="M581,309L564,417L614,359Z" fill="#fbcab1" stroke="#fbcab1" stroke-width="1.51"/><path d="M465,535L422,652L569,672Z" fill="#f6ccba" stroke="#f6ccba" stroke-width="1.51"/><path d="M422,652L416,833L569,672Z" fill="#ebc0ae" stroke="#ebc0ae" stroke-width="1.51"/><path d="M416,833L548,983L581,863Z" fill="#d5b09f" stroke="#d5b09f" stroke-width="1.51"/><path d="M411,383L564,417L581,309Z" fill="#fbc3a9" stroke="#fbc3a9" stroke-width="1.51"/><path d="M372,202L411,383L581,309Z" fill="#f7b191" stroke="#f7b191" stroke-width="1.51"/><path d="M421,-30L372,202L576,74Z" fill="#e7866a" stroke="#e7866a" stroke-width="1.51"/><path d="M548,983L406,1085L549,1099Z" fill="#b89282" stroke="#b89282" stroke-width="1.51"/><path d="M130,-195L211,-140L435,-151Z" fill="#b7423d" stroke="#b7423d" stroke-width="1.51"/><path d="M411,383L465,535L564,417Z" fill="#fcc8b1" stroke="#fcc8b1" stroke-width="1.51"/><path d="M326,157L372,202L421,-30Z" fill="#e58064" stroke="#e58064" stroke-width="1.51"/><path d="M416,833L342,931L548,983Z" fill="#cfa392" stroke="#cfa392" stroke-width="1.51"/><path d="M406,1085L465,1205L549,1099Z" fill="#a88171" stroke="#a88171" stroke-width="1.51"/><path d="M342,931L406,1085L548,983Z" fill="#c19584" stroke="#c19584" stroke-width="1.51"/><path d="M435,-151L492,-100L540,-128Z" fill="#ce6656" stroke="#ce6656" stroke-width="1.51"/><path d="M435,-151L421,-30L492,-100Z" fill="#d46553" stroke="#d46553" stroke-width="1.51"/><path d="M264,773L416,833L422,652Z" fill="#e3af9f" stroke="#e3af9f" stroke-width="1.51"/><path d="M333,575L422,652L465,535Z" fill="#f6c5b4" stroke="#f6c5b4" stroke-width="1.51"/><path d="M411,383L333,575L465,535Z" fill="#fac4b0" stroke="#fac4b0" stroke-width="1.51"/><path d="M406,1085L361,1259L465,1205Z" fill="#9b7060" stroke="#9b7060" stroke-width="1.51"/><path d="M221,482L333,575L411,383Z" fill="#f6b7a4" stroke="#f6b7a4" stroke-width="1.51"/><path d="M372,202L233,341L411,383Z" fill="#f1a386" stroke="#f1a386" stroke-width="1.51"/><path d="M222,-66L326,157L421,-30Z" fill="#d86753" stroke="#d86753" stroke-width="1.51"/><path d="M222,-66L421,-30L435,-151Z" fill="#d05a4b" stroke="#d05a4b" stroke-width="1.51"/><path d="M211,-140L222,-66L435,-151Z" fill="#c44a41" stroke="#c44a41" stroke-width="1.51"/><path d="M222,-66L196,107L326,157Z" fill="#d96550" stroke="#d96550" stroke-width="1.51"/><path d="M229,740L264,773L333,575Z" fill="#e6a99a" stroke="#e6a99a" stroke-width="1.51"/><path d="M249,1075L361,1259L406,1085Z" fill="#a06f60" stroke="#a06f60" stroke-width="1.51"/><path d="M342,931L249,1075L406,1085Z" fill="#b78374" stroke="#b78374" stroke-width="1.51"/><path d="M333,575L264,773L422,652Z" fill="#ebb4a4" stroke="#ebb4a4" stroke-width="1.51"/><path d="M249,1075L256,1254L361,1259Z" fill="#935e51" stroke="#935e51" stroke-width="1.51"/><path d="M233,341L221,482L411,383Z" fill="#f2aa93" stroke="#f2aa93" stroke-width="1.51"/><path d="M264,773L342,931L416,833Z" fill="#d6a091" stroke="#d6a091" stroke-width="1.51"/><path d="M204,1022L249,1075L342,931Z" fill="#b77e70" stroke="#b77e70" stroke-width="1.51"/><path d="M326,157L198,274L372,202Z" fill="#e98c6e" stroke="#e98c6e" stroke-width="1.51"/><path d="M198,274L233,341L372,202Z" fill="#eb9277" stroke="#eb9277" stroke-width="1.51"/><path d="M264,773L148,836L342,931Z" fill="#d29587" stroke="#d29587" stroke-width="1.51"/><path d="M148,836L204,1022L342,931Z" fill="#c38578" stroke="#c38578" stroke-width="1.51"/><path d="M221,482L108,522L229,740Z" fill="#eca89c" stroke="#eca89c" stroke-width="1.51"/><path d="M221,482L229,740L333,575Z" fill="#eeb0a1" stroke="#eeb0a1" stroke-width="1.51"/><path d="M196,107L198,274L326,157Z" fill="#e37d62" stroke="#e37d62" stroke-width="1.51"/><path d="M148,836L88,921L204,1022Z" fill="#bf7c72" stroke="#bf7c72" stroke-width="1.51"/><path d="M108,522L72,693L229,740Z" fill="#e29c91" stroke="#e29c91" stroke-width="1.51"/><path d="M249,1075L88,1115L256,1254Z" fill="#975b51" stroke="#975b51" stroke-width="1.51"/><path d="M229,740L148,836L264,773Z" fill="#d8978a" stroke="#d8978a" stroke-width="1.51"/><path d="M57,59L196,107L222,-66Z" fill="#cf5345" stroke="#cf5345" stroke-width="1.51"/><path d="M88,1115L66,1321L256,1254Z" fill="#83473e" stroke="#83473e" stroke-width="1.51"/><path d="M48,-12L57,59L222,-66Z" fill="#c7453d" stroke="#c7453d" stroke-width="1.51"/><path d="M44,377L221,482L233,341Z" fill="#eb9a87" stroke="#eb9a87" stroke-width="1.51"/><path d="M204,1022L88,1115L249,1075Z" fill="#a6685d" stroke="#a6685d" stroke-width="1.51"/><path d="M44,377L108,522L221,482Z" fill="#ea9c8d" stroke="#ea9c8d" stroke-width="1.51"/><path d="M198,274L44,377L233,341Z" fill="#e78f78" stroke="#e78f78" stroke-width="1.51"/><path d="M196,107L39,275L198,274Z" fill="#e17a61" stroke="#e17a61" stroke-width="1.51"/><path d="M72,693L148,836L229,740Z" fill="#d79388" stroke="#d79388" stroke-width="1.51"/><path d="M130,-195L48,-12L211,-140Z" fill="#b93335" stroke="#b93335" stroke-width="1.51"/><path d="M211,-140L48,-12L222,-66Z" fill="#c33e3a" stroke="#c33e3a" stroke-width="1.51"/><path d="M57,59L-11,206L196,107Z" fill="#d25e4d" stroke="#d25e4d" stroke-width="1.51"/><path d="M-11,206L39,275L196,107Z" fill="#da6d57" stroke="#da6d57" stroke-width="1.51"/><path d="M39,275L44,377L198,274Z" fill="#e2846f" stroke="#e2846f" stroke-width="1.51"/><path d="M88,921L88,1115L204,1022Z" fill="#ae6c63" stroke="#ae6c63" stroke-width="1.51"/><path d="M0,-86L48,-12L130,-195Z" fill="#b92930" stroke="#b92930" stroke-width="1.51"/><path d="M88,921L-37,1016L88,1115Z" fill="#a9645d" stroke="#a9645d" stroke-width="1.51"/><path d="M-38,828L88,921L148,836Z" fill="#c57e75" stroke="#c57e75" stroke-width="1.51"/><path d="M72,693L-38,828L148,836Z" fill="#ce867d" stroke="#ce867d" stroke-width="1.51"/><path d="M-88,1301L66,1321L88,1115Z" fill="#793834" stroke="#793834" stroke-width="1.51"/><path d="M-38,502L72,693L108,522Z" fill="#e59a91" stroke="#e59a91" stroke-width="1.51"/><path d="M-82,-239L0,-86L130,-195Z" fill="#a31b2b" stroke="#a31b2b" stroke-width="1.51"/><path d="M-31,410L-38,502L44,377Z" fill="#e18a7d" stroke="#e18a7d" stroke-width="1.51"/><path d="M-47,1081L-88,1301L88,1115Z" fill="#87423e" stroke="#87423e" stroke-width="1.51"/><path d="M-37,1016L-47,1081L88,1115Z" fill="#9b5550" stroke="#9b5550" stroke-width="1.51"/><path d="M44,377L-38,502L108,522Z" fill="#e69387" stroke="#e69387" stroke-width="1.51"/><path d="M-68,100L-11,206L57,59Z" fill="#cc5246" stroke="#cc5246" stroke-width="1.51"/><path d="M-38,502L-111,709L72,693Z" fill="#db8c86" stroke="#db8c86" stroke-width="1.51"/><path d="M-38,828L-37,1016L88,921Z" fill="#b86e68" stroke="#b86e68" stroke-width="1.51"/><path d="M-111,709L-38,828L72,693Z" fill="#ce817b" stroke="#ce817b" stroke-width="1.51"/><path d="M-160,1175L-88,1301L-47,1081Z" fill="#773939" stroke="#773939" stroke-width="1.51"/><path d="M-159,573L-111,709L-38,502Z" fill="#d18a86" stroke="#d18a86" stroke-width="1.51"/><path d="M39,275L-31,410L44,377Z" fill="#e08372" stroke="#e08372" stroke-width="1.51"/><path d="M48,-12L-68,100L57,59Z" fill="#c6443d" stroke="#c6443d" stroke-width="1.51"/><path d="M0,-86L-68,100L48,-12Z" fill="#bf3737" stroke="#bf3737" stroke-width="1.51"/><path d="M-11,206L-31,410L39,275Z" fill="#dc7765" stroke="#dc7765" stroke-width="1.51"/><path d="M-38,828L-235,951L-37,1016Z" fill="#a76461" stroke="#a76461" stroke-width="1.51"/><path d="M-185,213L-244,351L-31,410Z" fill="#c57065" stroke="#c57065" stroke-width="1.51"/><path d="M-185,213L-31,410L-11,206Z" fill="#d06d5e" stroke="#d06d5e" stroke-width="1.51"/><path d="M-82,-239L-221,-192L0,-86Z" fill="#940e27" stroke="#940e27" stroke-width="1.51"/><path d="M-221,-192L-248,-70L0,-86Z" fill="#991028" stroke="#991028" stroke-width="1.51"/><path d="M-248,-70L-68,100L0,-86Z" fill="#ae2b31" stroke="#ae2b31" stroke-width="1.51"/><path d="M-68,100L-185,213L-11,206Z" fill="#c6584b" stroke="#c6584b" stroke-width="1.51"/><path d="M-248,-70L-232,108L-68,100Z" fill="#aa3536" stroke="#aa3536" stroke-width="1.51"/><path d="M-111,709L-166,729L-38,828Z" fill="#c07a77" stroke="#c07a77" stroke-width="1.51"/><path d="M-159,573L-38,502L-31,410Z" fill="#d98c85" stroke="#d98c85" stroke-width="1.51"/><path d="M-244,351L-159,573L-31,410Z" fill="#cc817a" stroke="#cc817a" stroke-width="1.51"/><path d="M-247,797L-235,951L-38,828Z" fill="#a76a6a" stroke="#a76a6a" stroke-width="1.51"/><path d="M-235,951L-47,1081L-37,1016Z" fill="#985755" stroke="#985755" stroke-width="1.51"/><path d="M-166,729L-247,797L-38,828Z" fill="#b47473" stroke="#b47473" stroke-width="1.51"/><path d="M-235,951L-160,1175L-47,1081Z" fill="#874b4b" stroke="#874b4b" stroke-width="1.51"/><path d="M-232,108L-185,213L-68,100Z" fill="#b74d44" stroke="#b74d44" stroke-width="1.51"/><path d="M-160,1175L-235,1305L-88,1301Z" fill="#60292b" stroke="#60292b" stroke-width="1.51"/><path d="M-159,573L-166,729L-111,709Z" fill="#c2807e" stroke="#c2807e" stroke-width="1.51"/><path d="M-235,951L-235,1305L-160,1175Z" fill="#6e3a3c" stroke="#6e3a3c" stroke-width="1.51"/><path d="M-247,797L-166,729L-159,573Z" fill="#b77a7a" stroke="#b77a7a" stroke-width="1.51"/><path d="M-244,351L-247,797L-159,573Z" fill="#bf8384" stroke="#bf8384" stroke-width="1.51"/><path d="M-232,108L-244,351L-185,213Z" fill="#b55b50" stroke="#b55b50" stroke-width="1.51"/><path d="M-247,797L-235,1305L-235,951Z" fill="#834e51" stroke="#834e51" stroke-width="1.51"/><path d="M-248,-70L-244,351L-232,108Z" fill="#a94541" stroke="#a94541" stroke-width="1.51"/></svg>